/* XPM */
static char *_9095300604c4e57960130074c2a0965H5iQN0dq0Ti1Yom0[] = {
/* columns rows colors chars-per-pixel */
"32 32 178 2 ",
"   c #591C1B",
".  c #672725",
"X  c #692826",
"o  c #72362C",
"O  c #77382F",
"+  c #7D3B2F",
"@  c #713534",
"#  c #743B34",
"$  c #7F3F35",
"%  c #7C3D39",
"&  c #774137",
"*  c #7D433D",
"=  c #843B34",
"-  c #8B3F32",
";  c #873D3C",
":  c #8A432F",
">  c #864132",
",  c #8B4135",
"<  c #834239",
"1  c #8D463A",
"2  c #8C493D",
"3  c #914337",
"4  c #92463C",
"5  c #98463B",
"6  c #934B3C",
"7  c #844943",
"8  c #8D4B41",
"9  c #914744",
"0  c #934D43",
"q  c #994D43",
"w  c #964E4B",
"e  c #8F5047",
"r  c #89524F",
"t  c #945246",
"y  c #9C5145",
"u  c #9F5F46",
"i  c #94534C",
"p  c #9B544B",
"a  c #97594E",
"s  c #9D5A4D",
"d  c #985451",
"f  c #945A56",
"g  c #9D5C54",
"h  c #9B5B5B",
"j  c #A45247",
"k  c #A35549",
"l  c #AA574C",
"z  c #A45B4D",
"x  c #AA5B4E",
"c  c #A35D53",
"v  c #AB5D51",
"b  c #A35F5C",
"n  c #A85F58",
"m  c #B15F54",
"M  c #9C605C",
"N  c #A2614B",
"B  c #A56055",
"V  c #AD6456",
"C  c #AE6C56",
"Z  c #A3635B",
"A  c #AC6559",
"S  c #AD6A5E",
"D  c #B46156",
"F  c #B5645A",
"G  c #B9675C",
"H  c #B46A5D",
"J  c #BB695E",
"K  c #9F6563",
"L  c #A66762",
"P  c #AF6660",
"I  c #A56964",
"U  c #AC6C63",
"Y  c #AA6E6A",
"T  c #B36C63",
"R  c #BA6D63",
"E  c #B46F6A",
"W  c #BC6F69",
"Q  c #AF7166",
"!  c #AC716D",
"~  c #B57264",
"^  c #BB7265",
"/  c #BC7A65",
"(  c #B5746C",
")  c #BC756B",
"_  c #BC796E",
"`  c #B37472",
"'  c #B87771",
"]  c #B67B77",
"[  c #BB7B74",
"{  c #B77D79",
"}  c #BD7E7B",
"|  c #C3766C",
" . c #CB766F",
".. c #C47A6D",
"X. c #CA7B6F",
"o. c #C27771",
"O. c #C37B73",
"+. c #CB7D73",
"@. c #C27E7B",
"#. c #CF7F78",
"$. c #D47E74",
"%. c #D47F78",
"&. c #BD8177",
"*. c #BD837B",
"=. c #C7806E",
"-. c #CD826F",
";. c #C58274",
":. c #CB8275",
">. c #CE8B76",
",. c #C5827B",
"<. c #CB847B",
"1. c #C48A7E",
"2. c #CD897D",
"3. c #D28276",
"4. c #D08977",
"5. c #D2867C",
"6. c #DC857D",
"7. c #D48A7D",
"8. c #DB897E",
"9. c #C38681",
"0. c #CC8685",
"q. c #C48A84",
"w. c #CC8B83",
"e. c #C68C88",
"r. c #CE8E8A",
"t. c #D28781",
"y. c #D48C83",
"u. c #DA8D83",
"i. c #D28B8A",
"p. c #CC9281",
"a. c #CB918D",
"s. c #D59284",
"d. c #DC9285",
"f. c #D79887",
"g. c #DB9885",
"h. c #D4938A",
"j. c #DB938B",
"k. c #D39988",
"l. c #DC988B",
"z. c #CC9290",
"x. c #D29491",
"c. c #DD9793",
"v. c #DC9A92",
"b. c #D69C98",
"n. c #DC9C99",
"m. c #E3958B",
"M. c #EA958C",
"N. c #E39B8D",
"B. c #EB9E8E",
"V. c #E19690",
"C. c #E39C93",
"Z. c #EA9E94",
"A. c #E19C9A",
"S. c #EE9F98",
"D. c #DFA194",
"F. c #DBA19F",
"G. c #E5A194",
"H. c #ECA195",
"J. c #E4A39B",
"K. c #ECA299",
"L. c #ECA89F",
"P. c #F1A59C",
"I. c #F8A69B",
"U. c #F3A89D",
"Y. c #F8AC9F",
"T. c #DAA3A0",
"R. c #E2A5A0",
"E. c #EDA6A0",
"W. c #EBAAA3",
"Q. c #EAAFAB",
"!. c #F4A7A0",
"~. c #F2AAA2",
"^. c #FAACA3",
"/. c #F6B2A7",
"(. c #FBB1A6",
"). c #F7B5AA",
"_. c #FEB5AC",
"`. c #FFC1B8",
/* pixels */
"4 4 ; q q ( | W W W u.u.u.u.6.%.u.%.6.$.X.X.G D m m G D k j 5 5 ",
"O.O.O.j.u.Z.Z.Z.P.Z.I.!.S.^.P.S.P.S.I.Z.M.m.6.d.8.3.6.:.X.X.G F ",
"p p V +.R | ) O.5.o.,.#.%.u.u.u.m.m.M.5.$.:. .:.6.X.| J J | l y ",
"1 0 z ( A T T W 7.O.5.5.t.j.j.u.m.8.d.5.-.3...:.X.R G x x x 3 : ",
") ,.2.f.0.C.Z.C.K.V.~.~.S.K.Z.H.H.m.H.m.B.H.m.m.B.g.m.7.X...H R ",
"2 t t s 0 S T A ~ R <.+.) O._ ..8.:.>.:.>.7./ ^ F V H B y y 1 6 ",
"~ ( _ 2.O.s.f.l.s.w.V.v.l.Z.V.N.U.G.H.N.N.C.7.7.y.>.>.X..._ C F ",
"t t s ) U ( _ ,.f.,.7.2.<.i.5.5.7.:.7.7.5.d.7.7.7.X...^ ^ ^ z y ",
"t t a ;.~ ~ _ O.f.;.O.O.,.y.y.;.>.;.7.:.;.>.;.>.;.H A B V A 6 > ",
"_ [ ) f.w.l.G.v.G.v.v.Z.A.K.U.H.L.N.G.l.N.G.d.g.g.s.d.>.;.=.~ ~ ",
"2 a 2 s p T _ P T T ) O.W ^ o.| s.X.../ ;.:.~ H A A ^ C y t 1 6 ",
"_ ;._ s.2.v.K.c.Z.V.Z.H.m.C.K.Z.P.l.N.d.N.H.d.7.7.7.7.:.^ ^ C H ",
"p B c ,.| O.+.+.l.t.5.5.t.u.m.u.N.d.N.d.8.d.7.8.d.X...^ ^ ^ z k ",
"4 p p | H T W | s.+.o. .#.u.j.5.:.:.8.:.....^ =.>.H V z V V 4 : ",
"O.t.5.Z.u.Z.S.C.K.Z.S.P.S.!.!.S._.^.(.I.P.U.B.H.^.Z.H.d.d.8.X...",
"0 c w c p T ' n P T o.@.W R | W >.^ / ^ ..;.^ H H D J N 6 4 > 6 ",
"T O.( ,.} r.i.r.i.0.A.c.j.C.j.y.D.1.k.f.k.G.f.s.7.>.7.>./ / C C ",
"8 i d ,.@.` ` } n.e.i.0.@.y.0.<.1.1.k.p.;.>.2.f.D.7.B.g.>.&.N N ",
"d g g ,.@.] ] } z.{ 9.@.@.@.@.@.&._ s.;._ O.+.%.4.-.7.4.-.C 6 : ",
"w.E.A.A.c.W.W.x.A.i.A.~.~.!.S.!./.G.L.H.Z.I.Z.S.H.B.B.B.N.8.-.-.",
"t _ ~ ( U ,.[ i b d E @.@.o.R ) :.~ W R R | R m m l F v z j 6 m ",
"_ y.<.C.v.E.W.n.A.c.E.~.!.!.S.K.L.H.^.S.M.M.M.M.6.$.6.$.X.X.J / ",
"s p 0 ~ _ [ ;.r.c.<.i.t.t.d.8.5.5.5.m.u. .#. .%. .m D D G H j y ",
"k z g 2.w.2.,.,.c.,.0.,.<.N.u.:.<.,.d.y.+.<.@.%. .l q 5 V J 6 : ",
"..;.U s.y.v.J.f.A.E.v._.L.U.^.C.W.G.L.J.C.L.K.V.V.5.j.<.,.2._ ,.",
"2 B 2 g e Z ' g ( [ _ y.' ..^ H 2.~ ~ A A T n p 9 9 P a ; $ O a ",
"_ k.;.l.,.k.W.b.W.n.J./.~.`./.~.).G.J.J.v.A.i.t.w.w.J.s.&.&.Q *.",
"+ 2 < Q Z g Y Y T.,.' [ O.C.O.E _ Q 2.s.1.[ ) @.O.g Z f M I * & ",
"8 a e &.` ! &.] Q.a.w.w.,.v.,.O.' Q 1.p.#.@.' 9.@.c h d M I * # ",
"Z &.I *.` q.F.*.a.a.b.J.r.c.h.l.W.s.h.s.i.V.y.t.i.} 0.[ ! ! M ! ",
"o a & 7 & f Y r K ` ] ,.L Z Z b ) c p 8 w n w 9 ; = w % . .   @ ",
"M &.! 9.{ e.F.a.z.T.z.Q.b.v.J.j.K.i.u.t.i.M.V.i.0.} 0.[ ( ` h I "
};
