/* XPM */
static char *d7f4588a5b6f450efce7d4eaf494b7d4v1YO6g3qTOxp7gez[] = {
/* columns rows colors chars-per-pixel */
"64 64 136 2 ",
"   c #24446A",
".  c #29466C",
"X  c #27486B",
"o  c #2A4B6D",
"O  c #2E506D",
"+  c #31536F",
"@  c #2C4D72",
"#  c #304E73",
"$  c #314E78",
"%  c #2F5174",
"&  c #325474",
"*  c #365975",
"=  c #395B77",
"-  c #345579",
";  c #39567B",
":  c #36597C",
">  c #3A5B7D",
",  c #3F607E",
"<  c #405F7E",
"1  c #40627E",
"2  c #375D81",
"3  c #3D5D81",
"4  c #3E6284",
"5  c #3E6588",
"6  c #405E82",
"7  c #426385",
"8  c #4A6987",
"9  c #446689",
"0  c #4A678B",
"q  c #466A8C",
"w  c #4B698D",
"e  c #506D8F",
"r  c #47708E",
"t  c #4D728F",
"y  c #456D90",
"u  c #4C6D91",
"i  c #516E91",
"p  c #477191",
"a  c #4C7293",
"s  c #4E7A97",
"d  c #4E7A99",
"f  c #527494",
"g  c #527897",
"h  c #557798",
"j  c #597799",
"k  c #537C9B",
"l  c #5A7C9C",
"z  c #607F9E",
"x  c #567EA1",
"c  c #56819E",
"v  c #5E819F",
"b  c #5C819F",
"n  c #5783A0",
"m  c #5D81A1",
"M  c #5E81A1",
"N  c #5E83A0",
"B  c #5F82A2",
"V  c #5E87A3",
"C  c #5E85A4",
"Z  c #5B84A2",
"A  c #5C89A6",
"S  c #5E8BA8",
"D  c #5E8BA9",
"F  c #6081A0",
"G  c #6182A1",
"H  c #6083A1",
"J  c #6182A3",
"K  c #6285A1",
"L  c #6487A3",
"P  c #6283A4",
"I  c #6386A4",
"U  c #6387A7",
"Y  c #6487A5",
"T  c #6384A3",
"R  c #6887A4",
"E  c #6089A7",
"W  c #6789A5",
"Q  c #678BA5",
"!  c #6588A6",
"~  c #658AA7",
"^  c #6489A7",
"/  c #698BA7",
"(  c #6A8CA7",
")  c #6A8AA7",
"_  c #628BA9",
"`  c #6488A8",
"'  c #638CA8",
"]  c #628FAC",
"[  c #638DAA",
"{  c #6A8BAA",
"}  c #698CA8",
"|  c #6A8CA8",
" . c #6B8DA9",
".. c #6B8EAA",
"X. c #6D8EAD",
"o. c #6A8CAA",
"O. c #6694AE",
"+. c #6492AC",
"@. c #6990AD",
"#. c #6992AE",
"$. c #6F94AF",
"%. c #6C92AD",
"&. c #7493AF",
"*. c #7292AE",
"=. c #6D94B1",
"-. c #6D95B1",
";. c #6F99B2",
":. c #6D9BB3",
">. c #6E9AB4",
",. c #7196B3",
"<. c #7396B2",
"1. c #7295B1",
"2. c #739BB4",
"3. c #7499B4",
"4. c #749BB5",
"5. c #789AB5",
"6. c #799BB6",
"7. c #799BB7",
"8. c #799AB6",
"9. c #759EB9",
"0. c #7A9CB8",
"q. c #7B9DB8",
"w. c #7F9EBA",
"e. c #7B9EB9",
"r. c #77A1B7",
"t. c #76A2BA",
"y. c #78A2BA",
"u. c #7DA2BC",
"i. c #7EA8C0",
"p. c #7FA9C1",
"a. c #82A3BE",
"s. c #84A6C1",
"d. c #87ADC4",
"f. c #84AAC2",
"g. c #89ADC5",
"h. c #8FB1CC",
/* pixels */
". ; 6 7 9 3 : > : : o @ > < > 6 3 : : : % X - > 7 < > > : : : X @ > < < 6 3 > : : % X % 3 7 6 < = > 4 3 @ o = 3 3 6 > > > : :   ",
"& 8.0.*.P z g k s a - l a.1.I J l g k d 9 @ *.e.#.J m k c g s : f r.1.~ J x k k k q $ } 4.=.J J k k c k : w 8.1.` J m k k k a   ",
"8 y.C f w w 0 w w q 4 ( =.h w w w 0 u w q 7 u.` f w w w w w w 3 T ;.k u w 0 w w w w 7 d.` f u w e e w 0 6 m 4.x u w w w q w q % ",
"> +.a w w w w w w w 4 C c w w w w w e w w 3 :.a w w w w w w w ; v ^ w w w w w w w w > r.g w w u e w w w 4 h [ u w w w w w w w @ ",
"> S w w w w 0 u w q : k s w 0 u w w w w 4 - ] w w w w w w w 8 * k k w w w w w w w 7 - O.w w w e f w w w = a b w w w w w w w 9 X ",
"& w w w 0 w 0 w 9 = o 7 w w 0 0 w w 0 1 O % u 0 w w 0 w w 9 > & 7 w w w w w 0 0 7 & % a w w w w w w 9 > o > q w q w w w w 7 * . ",
"X % - - - - - - @ o   @ - - - - - - & o X   @ - - - - - - @ & o o & - - ; - - - o .   @ - - - - & - & o   X - - - - : - * o X   ",
"d d k 5   2 { | T T x d d k h . j | ~ m J k k d s & - } } ) L l s g s g   w ( ~ J m k s s g : o X.) L J b k s s q o 6 ( } T K h ",
"f i a q   ..u.%.l f f f u f f # f.4.E i j i f u w 4 k a.*.F f a a i u u @ q.e.] f f u a f u 9 w s.1.x f f f u a u ; &.u...h h t ",
"u w w w   =.] f w w w w i f w # t.k u w 0 u w 0 w 9 T +.w w w w w u u w - 4.C w w w w w w w 0 f +.i e w w w w w u ; 5.+.w w w w ",
"w 0 w 9   J k y w w w w e e w o -.u 0 w 0 0 w u w 7 g c w w 0 w 0 w w w # O.a 0 w w w w w w 7 9 A w 0 0 w 0 0 w w - [ g w w w w ",
"u 0 q =   g u 0 q w w i w 8 > X Z 0 w w 0 u w 0 9 + r a w q w w 0 w w 7 o n w 0 w w w w w q - 4 s 0 w 0 w 0 0 w > O C a w w w w ",
"6 6 * o   @ 6 7 6 7 9 8 , * o   2 6 9 9 6 7 9 > + X o 4 9 6 7 7 7 3 - +   & 9 6 6 6 7 7 3 & X X 3 7 7 3 7 7 4 : & @ $ 6 6 6 9 6 ",
"# 3 7 7 7 6 3 5 6 2 @ - 7 7 7 7 4 7 3 4 - o ; 9 7 7 4 4 4 4 > @ # 9 9 7 6 6 4 4 9 ; X - 9 4 7 7 5 4 4 4 % @ 7 7 9 9 4 7 7 4 3 . ",
"- a.8...J J k k k g : v a.3.L F x k k k 9 - q.q.X.L J k k c g > h u.4.U J l k l v u & ,.q.$.L J k k k x > u u.e.( J x l d k f . ",
"9 t.C a w w w w w u 1 %.O.h w w w u w w w 3 i.^ f w w w w w w < L 3.l u w u w f i w 4 d.[ h w w w w w w 7 v 2.v u w w w u u u @ ",
"6 O.u w w w 0 u w w 6 I k w w w w w 0 w w 3 3.t w w 0 u w 0 w ; l C u w w w w i w w 3 t.a q w w w u w w 3 h [ u q w w w w w w @ ",
": Z w w w w w w w 9 * s a w w w w u w w = - D w w w w 0 w w 9 & a g 0 w w w f w w > - +.q w w w w w w 0 * r k w w w w w w u 7 o ",
"& q w q w w 0 w 9 = o 5 u q w q w w 0 7 & @ g q q w w w w 9 > o 4 y w w w f q w 7 & @ p w w q w w w 9 > o 2 w w w w w w w 7 *   ",
"@ - : - % $ > > - & @ & : : : % - 2 ; & & & - : : - & > ; - - @ $ - : : % > > > & & @ % : : & % > = ; * % @ : : - % % : = & & o ",
"c d d 9   - ..| ) L m k g k u   f { ! R ) b k k k % % } ~ I I m k k k d   9 | | L J k k k k : X | | ` U J k g k q @ ; ..| U P k ",
"w w w w   4.u...g w w w w w q % h.<.B f w w w w w 9 ~ u.} h w w q w w w - d.4.J w w w w w w q f s...h w w w w w w = a.e.I u w w ",
"w w w t . =.A a w w w w w w w # e.k i w w w w w w 7 v D w w w w w w w u & 4.b w w w w w w w q w ] a w w q w w w w : <.S 0 w w w ",
"w w u w   A k w w w w w w w q o -.u f u w w w w w > g Z w w w u w w w w @ +.a w w w w w w w 7 q A q w w w w w w q - _ h w w w e ",
"i w e *   a t w w w 0 q 8 7 = . x q w 0 0 w w 9 9 + q u w w w w w w q = X d w q w 0 u u 0 9 * > g w q w 0 q w 9 , o d u w w w i ",
"9 q * o   @ 4 7 7 7 7 7 4 - +   2 5 7 4 4 7 7 3 *   @ 7 4 9 4 7 7 4 * +   - 7 7 4 9 7 3 > & X o q 4 7 4 7 7 4 : +   & 7 4 4 9 w ",
"o 7 8 w w w 7 4 4 3 X $ w w w w 9 4 4 4 #   = w w w q 4 4 4 4 @ @ 0 w w w q 5 4 5 -   - w w w f 7 5 5 4 o X 7 w w w w 4 5 5 >   ",
"7 s.u.} l l g h h f 2 U s.8.K x k h s g q : u.a.#.l l g s g f 3 l s.4.J l l g g g w - e.a.1.F v g g g f 3 h i.e.I l l s h h a o ",
"7 9.l w w w w w w w 4 } [ a q w w w w w 0 6 u.V t w w w w e i ; T =.s u 0 w w 0 w w 3 p.] f i 0 w w w w 6 v ;.k w w w w w w w @ ",
", @.u w w w w w w w 3 C k w w u w w w w 9 3 -.u w w w w w i f ; h x 0 w w w 0 w w q 3 9.a i w 0 w w w w , g S w w w w w u w 0 @ ",
"= Z w w w w q w w 9 * d s w q w w w u w > - S q w w w w i i 0 & p k w w w u w u w , - [ u w w w w 0 w 8 ; w k 0 w w w u w w 7 o ",
"% q w 0 w w w q 7 * @ 3 q 0 0 w 0 0 9 > + @ q 0 q 0 8 w i 6 = o 2 q 0 q 0 0 0 0 , & @ q w w 0 w w w 9 = X 2 0 0 0 w u 0 0 > *   ",
"  o @ @ # @ @ # . .   @ $ @ @ @ @ @ @ o     X @ @ @ & & # o .     # @ @ @ @ @ @ .       @ @ @ @ @ @ o .     @ @ @ @ @ # # . .   ",
"A A C p   9 a.q.1.%..._ A A k X ) a.8.*.*.A A A C ; 8 a.q.<.*.X.Z A A Z o h a.e.*.*.I A A A 4 @ s.a.<.*.} S A A s @ w a.q.1.*.A ",
"u u u w   <.9.` f i f u u u w % s.1.k w u u u w u 7 L y.~ h i w u u u u - u.>.m i i u u u u 9 a y.| h u w u w t u - 0.9.J u u w ",
"u w 0 q   X.A u w i u w q w w @ 9.s w w w w w 0 u 7 l V q w w w 0 w w q $ 2.k w 0 q 0 0 0 w 9 u ] u 0 w w w w e i > 1.n w 0 w u ",
"w w w 7   n s 0 u i w w w w 9 o O.w w w w w w w 0 > a n w w w w w w w 9 @ +.u w w 0 w w w w 4 7 Z w w w u w w i 9 & S a w w w w ",
"u w 8 *   s u u i w w w w 9 = o x q w q w w w w 9 O y a w w w w w w 9 , X k w w w w u 0 8 9 * 4 a w w w 0 w e w > @ k u w w w 0 ",
"7 > o X   X 3 7 6 3 6 6 = & o   - 3 3 3 3 3 3 : o X   3 3 3 3 3 < > % O   @ 3 3 3 3 3 6 = O     3 3 3 3 3 9 6 & o   o 3 3 2 6 3 ",
"  w f f f a y u y 5 o - f f f f u p q y &   7 f h f f q q y q @ # f f f f f a p q ;   ; f h h f y q y q - $ w h f h a q q q 5   ",
"> a.4.C h h a a a a , ) u.#.b g f a a a w : a.0.' g g a f a a > v a.*.l j l a a a q > u.e.[ j h h a a f 9 l a.1.v h h f f a u @ ",
"7 r.k w w w w w w w 4 } V f w w w w 0 w w 4 t.b w w w w w w w ; F +.g w f w w w w w 4 i.Z a w w q w w 9 6 l -.k w w w w w u 0 @ ",
", O.a w w w w w w w 3 C k w w w u 0 0 u q > :.u w w w w w w w = c b w f u w w w q w 3 t.p w u w 0 w w w 3 h C w w w w w w w q @ ",
": c w w w w w w 9 7 & a a w w w q q u i = & A w w w w w w w 9 + t g i w 0 w q w w = & D w 0 0 0 0 w q q * q k q w w u w w 0 7   ",
"@ q w w w w q w 7 * o 2 w w w w w w w , O X q w w w w w w 7 = . : w i w w w w q > + X 9 w q u w w w 9 = o - q q q u w w w > *   ",
"& - : % @ @ > > > ; - - : : - o & 6 7 > - - - : : @ @ > ; > ; ; - : : : X & > > > : - : : - @ X 2 3 2 = - - : : - @ @ > 3 > > ; ",
"n k k q   9 4.1.! U m x k k a . ) 8.#.L I k k k k - 3 4.<.} R x k k k k o l <.$.L T k k k k 4 & 8.1.{ J m k k k u @ w 8.*.L L m ",
"f u w w   4.>.I a w 0 w 0 u w - g.X.h w w w u w 0 7 I t.m f w w w w w w - u.-.l w w w w w w 9 f e.I f w q w w w w : u.:.l w u i ",
"f u 0 q   ..A y u w w u w w w ; t.h w w w w w w w 9 l ' w w w w u w w w - 2.x 0 0 u w w w w q t D u w w w u w 0 w = ,.Z w u f w ",
"i 0 0 7   n k w u w w w w w 0 o O.w w w w w w 0 w = a b w w w w 0 w w q @ +.u q u 0 w w w w , 7 A q w w w w w w 9 & A a w i w w ",
"w w 7 &   q w w w 0 w w w , = . a w u 0 w w u 0 4 % 5 r w w w w w w 7 =   a 0 w 0 w w 0 w 8 & : y 0 w w w w w 9 = o a u h e w w ",
"< - % o   @ > 2 ; 6 ; ; - & o   - 2 - 2 ; 6 ; ; O X X = 3 ; 3 ; ; = % O   % 3 2 > > > = < &     > > > > ; 3 ; & o   @ = < > ; = ",
". h l l h h a p a q @ > z l j l f p a a 2 X w z l l h p a p y & ; l l l l f a p a 5   w K l j l a p y a - - h l l j h a a a q   ",
"< s.e.C j h a f a a 3 ( a.%.l g f f a f q ; g.e.^ h h h a a a 3 J s.$.l j f a f u u 3 s.e.] j j h a f f 3 h s.2.x h h i f a y X ",
"9 >.k w w 0 w w w w 4 [ S w 8 w w q 0 w 0 6 t.c 0 w u e u w w ; K [ f w w w w 0 0 f 9 f.C w w w q w 0 w 3 m -.a w w w w u w u @ ",
"> ] u w w w w 0 w 0 > b g 0 w w 0 w w 0 9 > O.q w w f 0 w w w : g k w w w w w w w w 3 >.q w w w 0 w w w 3 f Z w w w w w w w 0 @ ",
"> k w w 0 w w u w 7 - a f w w w 0 u 0 w = & A 0 w i u 0 w w 7 O a s w w w 0 w w 0 > - D w w 0 w w w w 9 % y g w w w w w w w 6 . ",
". 7 9 7 9 9 7 9 > - . - 7 9 9 9 6 9 7 - o X 4 7 w 9 7 6 9 > * o - 7 9 9 6 9 9 9 = + . 3 9 7 9 9 9 9 > * X % 7 7 9 9 9 9 9 = &   ",
"- - - - . @ 3 > 7 = - - : - - o - 2 2 - : % : 7 ; & @ 3 > > - & % - 2 > @ $ 3 3 : - % - : > @ @ ; 3 > - : % : : - @ @ ; 2 : ; % ",
"Z n n y   f a.u.*.) U n n n h X 1.s.<.| ) m n C n 2 9 s.w.%.) ^ n n n x . P s.<.~ | Z c n n 7 - s.u.1.) [ Z c b a # h s.e.{ | m ",
"w q q q   9.2.T a w w w w w w @ f.] h 0 q w q w 0 6 U 2.l a q w q q q w - u.=.g w w w w w w 9 f 9.m a w w i w q w ; u.>.l u w 0 ",
"u w w w   } S a w w w w w q w @ 9.s w w w w w w u 9 l S w w w w w w w w # 2.k u w w w 8 8 0 q a [ u w w e e w w w > -.n w w w w ",
"w w w 7 X A k w w w w w w w 9 o +.u w w w w w w w * a k w w w w w w 0 9 @ S u u w w w w w q > 5 Z w w u i w w w 7 % C f u w w 0 ",
"w w 7 & X a w w w w w w w 7 * X a w w w w w w 9 7 & 4 u w w 0 w w 0 9 = X y u q w w w w 9 7 + : a w w i w w w q = o y u w w w w "
};
