/* XPM */
static char *_f77b0bc78f74e07c97053ed985ca362W1qIQIibhqyzawlz[] = {
/* columns rows colors chars-per-pixel */
"64 64 59 1 ",
"  c #030001",
". c #040303",
"X c #040404",
"o c #070707",
"O c #080707",
"+ c #090807",
"@ c gray5",
"# c #121213",
"$ c #141413",
"% c gray8",
"& c #161616",
"* c gray12",
"= c gray15",
"- c #2E2B2A",
"; c #3A3938",
": c #3D3C3C",
"> c #40403E",
", c #42403F",
"< c #494746",
"1 c #515050",
"2 c gray34",
"3 c #5B5A5A",
"4 c #5F5C5D",
"5 c #606060",
"6 c #656366",
"7 c #6A6A6A",
"8 c #717171",
"9 c #767575",
"0 c #8A8889",
"q c #8F8C8A",
"w c #91908B",
"e c #94928A",
"r c #939592",
"t c #9F9F9F",
"y c #B3AFAE",
"u c #BAB9BA",
"i c #CAC9C9",
"p c #CBCBCA",
"a c #D7D4D3",
"s c #D4D3D4",
"d c #D6D5D5",
"f c #DADAD7",
"g c #DADADD",
"h c gray87",
"j c #E2DFE0",
"k c gray90",
"l c gray92",
"z c gray93",
"x c #F1F1F1",
"c c #F3F3F3",
"v c #F5F5F2",
"b c #F6F5F3",
"n c #F6F6F6",
"m c #FBFAF9",
"M c #FDFBFB",
"N c #FDFCFC",
"B c #FDFDFC",
"V c #FDFDFD",
"C c #FEFFFF",
/* pixels */
"                                                                ",
"                                                                ",
"                                                                ",
"                                                                ",
"                                                                ",
"                                                                ",
"                                                                ",
"                                                                ",
"                                                                ",
"                                                                ",
"                                                                ",
"                                                                ",
"                                                                ",
"          :CCCCCCCCCCCCu                4CCCCCCCCCCCCg          ",
"      ,mCCCCCCCCCCCCCCCCCCC#         jCCCCCCCCCCCCCCCCCCCr      ",
"     bCCCCCC             CCCCCCCCCCCCCC#            -CCCCCC     ",
"     bCCCC                 CCCCCCCCCC                 CCCCC     ",
"     eCCCC                 <CCCCCCCCu                  CCCC     ",
"     aCCC                   CCCCCCCC                   3CCC     ",
"      oCC                   CCC  CCC                   %Ca      ",
"       CC                   CC    CC                   $C       ",
"       CC                   CC    CC                   $C       ",
"       CC                   CC    CC                   &C       ",
"       dC,                  Ch    CC                   zC       ",
"        CC                  C      Cd                  CC       ",
"        CC                 CC      CC                  CC       ",
"        lC                 Ck      oC                 CC        ",
"         CC               CC        CC                Cc        ",
"          C@             CCC         CC              CC         ",
"          lCC           CCC          1CC            CC          ",
"           9CC&       tCC0             CCC        tCC*          ",
"             CCCCCCCCCCC                kCCCCCCCCCCC            ",
"                CCCCs                        vCCo               ",
"                        2hCC7=     5cCz5                        ",
"                      fCCCCCCCC  CCCCCCCCC                      ",
"                    oCCCCCCCCCCC6CCCCCCCCCCc                    ",
"                   qCCCCCCCCCCCCCCCCCCCCCCCCC                   ",
"                  CCCCCCCCCCCCCCCCCCCCCCCCCCCC                  ",
"                 CCCCCCCCCCCCCCCCCCCCCCCCCCCCCC                 ",
"  C             CCCCCCCCCCCCCCCCCCCCCCCCCCCCCCCC             C  ",
"  ;C           CCCCCCCCCCCCCCCCCCCCCCCCCCCCCCCCCC           Cv  ",
"   CC         CCCCCCCCCCCCCCCCCCCCCCCCCCCCCCCCCCCC         CC   ",
"   iCC       CCCCCCCCCCCCCCCCCCCCCCCCCCCCCCCCCCCCCC       nCC   ",
"    CCCC8@wCCCCCCCCCCCCCCCCCCCCCCCCCCCCCCCCCCCCCCCCCCC$$CCCC    ",
"    <CCCCCCCCCCCCCCCCCCCCCCCCCC  CCCCCCCCCCCCCCCCCCCCCCCCCCB    ",
"     CCCCCCCCCCCCCCCCCCCCCCCCC    CCCCCCCCCCCCCCCCCCCCCCCCC     ",
"      CCCCCCCCCCCCCCCCCCCCCCC      CCCCCCCCCCCCCCCCCCCCCCC      ",
"       CCCCCCCCCCCCCCCCCCCCC        MCCCCCCCCCCCCCCCCCCCC       ",
"        cCCCCCCCCCCCCCCCCC:           CCCCCCCCCCCCCCCCCC        ",
"          CCCCCCCCCCCCCC>               CCCCCCCCCCCCCC@         ",
"           yCCCCCCCCCC&                   CCCCCCCCCCi           ",
"               o$                             X o               ",
"                                                                ",
"                                                                ",
"                                                                ",
"                                                                ",
"                                                                ",
"                                                                ",
"                                                                ",
"                                                                ",
"                                                                ",
"                                                                ",
"                                                                ",
"                                                                "
};
