/* XPM */
static char *_41e4e12b1c54f3ea6549ad827558683rVvOewUKMEFJa60h[] = {
/* columns rows colors chars-per-pixel */
"64 64 256 2 ",
"   c #1A1201",
".  c #191507",
"X  c #191B10",
"o  c #241A03",
"O  c #2A1D01",
"+  c #251C0B",
"@  c #2B1C0D",
"#  c #231702",
"$  c #311E0E",
"%  c #2B1D11",
"&  c #331F10",
"*  c #2A220E",
"=  c #29220B",
"-  c #392501",
";  c #33230D",
":  c #39240D",
">  c #3C2A0B",
",  c #372806",
"<  c #3C3208",
"1  c #2C2412",
"2  c #2F2815",
"3  c #2B2918",
"4  c #342413",
"5  c #3A2514",
"6  c #332A15",
"7  c #3C2A14",
"8  c #342D1B",
"9  c #3B2D1B",
"0  c #342619",
"q  c #36311C",
"w  c #3B331C",
"e  c #3B3417",
"r  c #2F321F",
"t  c #372F21",
"y  c #363020",
"u  c #3B3421",
"i  c #3E3923",
"p  c #393A2B",
"a  c #2B3A31",
"s  c #1D3C3F",
"d  c #432D03",
"f  c #452E07",
"g  c #4C3C02",
"h  c #44320C",
"j  c #493407",
"k  c #573905",
"l  c #422C15",
"z  c #432D1B",
"x  c #492B16",
"c  c #453515",
"v  c #43341B",
"b  c #4B331C",
"n  c #443A1C",
"m  c #4A3A1E",
"M  c #493813",
"N  c #523B17",
"B  c #653D01",
"V  c #652F17",
"C  c #433522",
"Z  c #4C3522",
"A  c #433B24",
"S  c #4B3C23",
"D  c #433C2A",
"F  c #493C29",
"G  c #533C24",
"H  c #563C27",
"J  c #463E31",
"K  c #673720",
"L  c #334338",
"P  c #3D510C",
"I  c #4F4003",
"U  c #564807",
"Y  c #494418",
"T  c #554718",
"R  c #5C531C",
"E  c #5F500D",
"W  c #674408",
"Q  c #774900",
"!  c #694815",
"~  c #665719",
"^  c #785419",
"/  c #6F530F",
"(  c #736815",
")  c #474125",
"_  c #4B4325",
"`  c #464129",
"'  c #4B442A",
"]  c #4E492C",
"[  c #4F4B25",
"{  c #524225",
"}  c #5A4324",
"|  c #54442B",
" . c #5C432B",
".. c #534C2D",
"X. c #5A4B2B",
"o. c #564A25",
"O. c #5A522E",
"+. c #58532A",
"@. c #4B4935",
"#. c #544C32",
"$. c #5C4C32",
"%. c #5A4B35",
"&. c #5B5433",
"*. c #5C5539",
"=. c #5A5534",
"-. c #634C2D",
";. c #644A29",
":. c #665726",
">. c #634C32",
",. c #684F34",
"<. c #635435",
"1. c #635B3B",
"2. c #6B5B3C",
"3. c #665637",
"4. c #735B38",
"5. c #775626",
"6. c #786926",
"7. c #6B623D",
"8. c #6A6438",
"9. c #76653B",
"0. c #726E28",
"q. c #52631B",
"w. c #1E3C40",
"e. c #1B4855",
"r. c #1E454E",
"t. c #254446",
"y. c #295059",
"u. c #325F6F",
"i. c #545849",
"p. c #4E594E",
"a. c #6A5D41",
"s. c #765E43",
"d. c #56635A",
"f. c #6D6341",
"g. c #6B6546",
"h. c #736444",
"j. c #726A45",
"k. c #7B6A4A",
"l. c #776748",
"z. c #7C734D",
"x. c #787549",
"c. c #7B7555",
"v. c #7A6B50",
"b. c #507077",
"n. c #6A7971",
"m. c #425F65",
"M. c #995A00",
"N. c #85591D",
"B. c #845103",
"V. c #AD7001",
"C. c #875928",
"Z. c #86692A",
"A. c #84782A",
"S. c #877933",
"D. c #9A7437",
"F. c #90682D",
"G. c #A67939",
"H. c #A5702D",
"J. c #8E730E",
"K. c #C77902",
"L. c #846C46",
"P. c #89744A",
"I. c #877855",
"U. c #937C56",
"Y. c #8B7F6C",
"T. c #A57F41",
"R. c #729020",
"E. c #7C8276",
"W. c #B18506",
"Q. c #908735",
"!. c #B2823F",
"~. c #CB8900",
"^. c #D28E00",
"/. c #D09401",
"(. c #EFB500",
"). c #DAA214",
"_. c #8A8559",
"`. c #93885E",
"'. c #929152",
"]. c #B88844",
"[. c #B4914E",
"{. c #B9A856",
"}. c #A7A05A",
"|. c #8B8566",
" X c #948665",
".X c #999667",
"XX c #948D78",
"oX c #A6996B",
"OX c #A69876",
"+X c #A78F68",
"@X c #A7A66C",
"#X c #ADAD7A",
"$X c #AAA873",
"%X c #B9A57B",
"&X c #ADB07B",
"*X c #B3B37B",
"=X c #B1A86C",
"-X c #9EA16C",
";X c #C5934C",
":X c #C99B54",
">X c #D09E57",
",X c #D1A25A",
"<X c #CDA25A",
"1X c #D9AC63",
"2X c #D1B969",
"3X c #E4BD71",
"4X c #E5AE5C",
"5X c #EBC578",
"6X c #FACD34",
"7X c #5B7C86",
"8X c #4D7685",
"9X c #5D8593",
"0X c #5E838F",
"qX c #638996",
"wX c #628899",
"eX c #648897",
"rX c #718F96",
"tX c #718F99",
"yX c #778E8F",
"uX c #779AA6",
"iX c #869693",
"pX c #91948A",
"aX c #9EA091",
"sX c #ABA388",
"dX c #B8A988",
"fX c #BDBC85",
"gX c #B9B886",
"hX c #AFA794",
"jX c #B7B2A5",
"kX c #98A4A3",
"lX c #C4AD86",
"zX c #C8B189",
"xX c #C5B587",
"cX c #CBB693",
"vX c #D7B98B",
"bX c #D8BE99",
"nX c #BEC087",
"mX c #C5C58B",
"MX c #CBCA94",
"NX c #D7D599",
"BX c #D1CF8C",
"VX c #F5D486",
"CX c #DDDCA2",
"ZX c #D8CDB9",
"AX c #D4C8B1",
"SX c #E9E8A8",
"DX c #F6F5B6",
"FX c #EFEFAE",
"GX c #E1DEA1",
"HX c #BBC9CB",
"JX c #CED1CD",
"KX c #E4DACA",
"LX c #EBE5D7",
"PX c #EAEAE5",
"IX c #F6F3ED",
"UX c #D6E0E2",
/* pixels */
"y t y q * n 1.e q 8 3 2 v X.<.X.F q 8 8 8 q y i #.y C 6 8 A q ' A ) C e t 8 y t y y 8 w 8 q i u 8 q y u y w u ' i t y y ) w e 2 ",
") #.' ` * v a.C i 6 + 1 e { X.b A t t q 3 t q y ] 8 w 6 w q y i u i w D u D y t y y 8 y D q y q y y y y q q y ] w t y q ) w ] A ",
"w A A u ; c j.6 8 3 @ 1 u $.L.' v u u C 8 3 6 n ] 6 ] w e u u i i w ` ) ) ] ' _ ' #.) +...S A ' @.` A i i w i A i w i u ) ) +.A ",
"' F A C 9 { _.q t 3 * 8 Z X.7.m C 8 8 u C ` A | ..] $.) | ' ] _ | ] =.=.=.8.*.I.c.z.z.j.j.1.8.*.j.=.#.=.) ` ` ' D ' ) _ ] ) *.) ",
"h.X.{ v v X.2.w w 3 1 A { -.I.m 9 u 9 t D A D '  .F #._ ..e | | ] | #.=...7.=.8.x.f.7.8.7._.7.8.O.X.=...w n ' ) D A ` ' ` ) ] _ ",
"9 9 6 2 ; 6 6 9 9 u @ q S <.`._ e w w i 8 C 0 A #.S #.X..._ A #.' ' ' | _ X.[ O.=.8.1.8.c.x.7.j.=...#.#.] #._ ' A A p ' ] A ` ] ",
"q w 2 = * 1 3 u y u @ 6 v -.U.S 9 C u A C F C | 3.h.I.I.k.v.%.a.2.1.h.a.>.f.x.f.j.L.I._._.I.U.I.x.9.x.z.v.j.7.7.<.k.j.<.h.h.l.z.",
"_ { q 6 8 y #.S w y 3 6 m -.c.S w y D F w v Z  . .Z l.k.1. XZ S $.>.l.k.3.a. XL.s.l.k.U.`. X XU.k.c. XL.|.x.k.k.<.9.2.>.l.I.k.h.",
"m Z S m %.n v m m m m v m -. X{ w 8 i ' A 1 $ 5 : f x $ 5 & $ $ 5 4 ; 5 & & 0 x & 5 $ 4 : $ 5 ; & % 0 & 4 : : $ : 5 5 4 & 4 5 & ",
"L.4.k.} 2.9.k.`. XL.h.h.{ k.OX&.6 w ] .._ = C H : } K b z ,.V l C & l 7 z 0 5 Z b >.0 z m H Z b & 0 <.5 l l l l x z x Z 4 9 Z l ",
"1.$.<.{ 3.} <.l.I.7.2.&.c _ 2.n 6 q 6 A _ 7 e : b h.;.l l ;.x 5 & 5 b x x x ;.H b & 7 G ,.4.4. . .b & 5 Z H b b Z H b & : z Z l ",
"| S n n Z n C Z b H H C 4 q q @ 6 w 6 A F v  .e -.4.4.} G K ; C 7 l Z x >.;.4.-.,.7 G -.;.h.,.-.N Z z H ,.N  . .-.H N l 7 b  .b ",
"A 6 6 6 4 6 6 8 e e 6 * = = = + t w 8 D ' z H G ;.s.L.;.m ,.b b x 7 b H H  .3.-.-.Z H 4.L.,.,.;.>.H H H ,.4.,.H H G  .b l Z -.b ",
"* 1 = + 1 * * = 1 = = . + + + + q 3 w t A 5 G H H 4.-.-.b s.S b b 5 b G H N c N b >.l H ,.;.;.G H b ,.l ,.-.H m b G b m 5 S G b ",
"+ * = 1 1 @ + 1 * + + = + * 1 1 8 8 w i ' S 5 ; G  .H c 5 ,.l z $ 5 x b x l l b b 5 5 z b Z z x x v > 7 x c c 9 : v b 5 : 7 l x ",
"8 6 3 2 3 3 8 2 3 3 2 1 3 2 1 3 q u u ) ) ..| >.G ,.3.l.>.v.C C Z Z S $. .X. .<.2.2.v.2.v.s.a.>.%.>.F %.>...<. .v n | C w C l m ",
"' A u i i i i y A i 8 6 6 8 6 8 A ' ) ` ) ] e 0 5 7 z 7 $ = + @ @ @ * 5 ; + X * % + @ @ 5 5 + + + % % % $ ; 5 O @ # + % + @ $ 5 ",
"=.#.' ] #.#.C *.A =.' ' 1.#.X.#.C @.' ' h f d - ; l H z ; * + @ # + ; 0 $ * + * + @ # @ 5 & @ 1 + % % + % 0 $ @ + + + % + @ 4 4 ",
"*.#.e =.f.1...e ) g.+.6 z.7.j.#._ _ h < jXJX).).W T | > 4 * = @ + % 5 z $ 0 1 * 1 % @ 4 z $ 2 * + % % + 4 z $ 1 1 + 1 @ @ 0 z 4 ",
"*.g.=.c.c.z.&.) ] *.] ] *.*.&.' ' M ~.AX>X9.V.~././ : 4 6 * 1 1 1 4 Z 4 1 9 1 * 4 % $ Z 7 % q 1 3 1 & $ v v $ 1 1 1 1 4 $ v Z $ ",
"` ' A A i A q ) ) i q q D i C ) h /.(.6X~.k k V.K.^.W , 3 1 1 4 4 z H 4 1 3 2 2 $ ; 5  .; 2 8 1 3 * 5 :  .4 2 1 1 4 4 5 ; H : $ ",
"' ` ) ` ] ] ) ) #.' ` i ] ) ' ' d (.(.^.B.f K B B V.W , 1 3 0 5 5 G 5 1 4 * 2 2 0 7 b l 4 6 3 4 6 4 5 v c * 3 1 1 1 4 7 v m $ 2 ",
"' ` _ _ ....) ) +.+.) ] ] ] _ j W.(.^.Q d ^ :XN.j B f > 3 4 3 7 m G 4 4 6 3 2 @ : l h > > > 2 1 1 0 b  .& 4 4 1 1 1 6 v  .5 4 2 ",
") ) ` ] +.=.e ] O.#.' ] ] ] _ d (.^.Q / f N.1XbX5.J.V.k w y 0 z H 7 ; 0 q 6 * - N G.T.{.[.D.< > > > f b ; $ * 1 * 3 9 S Z 1 4 6 ",
"] ' ] +.O.O.e #.O.=._ ) ] ..M W.^.B.d ~.W.Q 5.I.W./.K.M.k S D C F 0 8 n 7 > <.pXL C.!.3X3X3XF.h L hXhXM - , 6 e w u A C c 6 u i ",
"=.+.#.1.O.*.e #.7.O.[ O.[ ..d (.K.j V.^.^.W.V.W.~.^ B M.Q m ' ' ..v > s.hXhXjXjXr.a ^ ;X!.1X;Xh y.ZXZXhXd.d.c S S S S | Z C C ..",
"#.+.) 1.*.7.i ] 7.=.#.] n X.d (.Q V.~.W B K.^.^.Q Y.C.B j N ) c M h 2.kXHXZXAX%Xb.m.j 5.F.:X5.L b.iXlXZXeXwXn S _ ..v $.X...S S ",
"*.7.e *.7.j.v A 1.*.8..._ -.d ~.j (.K.= Y.vXVXvXsX|.H.B - f ;.D.D.^ &.pXiXzXzXsX7X@.d f W N.d p @.i.n.n.qXwXc } | v $.2.2.{ c ..",
"_ *.*.' ) | C n v ) $.k.j.7.f V.d /.B.B Y.pXpXpXpXZ.V.M.k ! ].1X1X].~ @.yXsXn.n.i.i.x +XXXXXf i.k.k.iXn.d.i.h ..<.<.{ v <.<.$.*.",
"l.U.U.U.2.U.U. XI.9.U.`. XoX,.B.W B.O B B B / M.B.~.K.M.k D.>X>X;X].D.) d.XXyXn.d.b.N KXKXZXM 0XaXaXKXzXL a d | | X.2.j.Z = o + ",
"& 4 $ ; 5 * ; ; @ $ @ @ $ 4 $ d N.W :.;.B.B.~.^.(.^.M.k d F.>X;XF.F.D.C p.yXZXlXiX7Xi.P.zX2XM 0XeXeXdXoXm.u.c v A | n m 1.* @ 2 ",
"Z 5 5 7 9 ; 5 0 5 C 7 5 5 9 7 d C.G.vX3XC.^ B.V./.V.^ k d 5.T.F.5.Z.F.i.8XiXxXxXdXeX7XN lXdXc 0XeXeXlXU.qX9Xc m v F S H a.> F v ",
"& 5 b x z x b b l 5 & x x b x d N.:XLXVX1X1XF.B.M.N.{.D.j # h k L.+XU.XXu.n.%XlXdX9X7XT AX2Xc 7XwX8XXXP.qXqXc S m S X.o.X.X.H 9 ",
"7 5 Z x H Z  .H H l x G H ;.H f H.;X5X5X,X5X3XZ.N [.3X:X5.#   O L.lXzXaXb.p.U.OXpX0Xd.k.KXI.p 8X8Xp.L.sXiXeXi.S S { X.} +.{ w e ",
"x l Z b >.H ;.H >.x Z ,.-.l.,.j ,XF.G.;X>X5XVX1XG.1X>XG.N.:   O l.dXzXaXb...l.c.8Xb.N lX%X5 e.e.e.4.OXIXcXtXwXc T X.o.+.j.9 t S ",
"H 5 b H H G b Z G H x >.N 4.H j 3XH.j N.].>X5X,X,X,XH.N.B O   O p.iXzXhXyXn.;.2.t.t.N zXcXa.w.w.t.l.PXIXzXrXwXc { X.X.X.I...Z H ",
"& & x b z x l l z l & b b b x f G.H.k ^ N.!.:X1X4X:XF.B ! ,   O p.iX2X%XhXrXXX2.*.a j +XJXAXs.d | UXLXlXlXrXwXc { X.X.} 2.<.H F ",
"F H Z H -.>. .| >.| a.>.2.a. .3.< ;XN.- - ^ !.2X3XD.j K f o   O p.iX+X+XsX9XkXIXJXn -.X.d 3.PXc eXeXdXU.cXtXwXc { O.O.+.2.&.Z 9 ",
"% % 4 : 5 + % % & @ % & 4 4 + @ , !.; o o - d d d d = o , g - 4 d.pXOX+XXXu.yXxXdXkXPXJX} IXUXb 0XyX%XP.IXuXwXc [ +.+.} 1.Z 4 v ",
"% + 5 7 0 % 1 t & % @ % 0 4 @ 1 8   g U g g I I U U U g > j j p.eXiX+X.XXXe.d.dXlXhX9X7X;.PX2XM 7X%XP. XPXuXwXc [ =.1.X.<.> 7 _ ",
"% + 0 z & 0 w 0 4 % % & z & 4 8 3   U S.e o g I 6.S.A.M :.S.~ p.eX7X+XcXiXe.u.U.2XsXeXb.M lX%Xh r.P.L.IXcXtXwXc [ O.7.O.k.e { H ",
"@ & z l & J q 8 8 $ % l z & w 0 8   6.{.2XQ.S.~ ( {.T o.S.{.S.p.7Xn.hXJXwX8Xm.L.L.n.7Xt.k P.9.> e.k.X.IXcXtXwXc [ O.f.7.2.v H e ",
"& 5 H 4 4 D 9 8 9 5 0 H 0 4 F D q   g S.{.2X2X2Xo.:.< R [.2XA.p.b.s Y.JXwXkXjXN g.e.r.c L.L.h e.e.j PXIXzXtXwXc X.7.j.9.7.e 9 7 ",
"5 Z C 4 8 t 8 y 5 9 z Z & 9 8 w q 6 o 6.Q.{.2X2XQ.> < I ( {.6.a e.L Y.JXwXkXAXN g.e.t.x P.L.f r.r.N PXcXzXyXeXc <.j.z.8.z.4 9 n ",
"b H : 3 8 y t 0 9 z H 5 0 8 8 8 0 9   6.I k g j [.n < I ( T d a a Y.KXaXeXiXAXAX' e.t.h U.%Xf h M dXIXcXlXtX9Xn o.+.I.9.I.* m G ",
"Z m 4 9 t 8 q 8 9 Z H 5 0 y y t y t . d ^ [.;XT 6.> < I j ^ W a a |.KXaX9XiXzXAXAXh > M %X%XN %X%XeXzXzXzXyXwXA <.+.I.I.I.c | Y ",
"H 7 8 8 y y y w u G 7 4 v i C w u u d N.;X5XVXH.> 6 + - ! !.C.f pXKXzXaXwXwXiXzXzXsXb.h f N LXtXwXwXeXlXzXlXrX0X_ c e A i z v C ",
") e *.*.' *.a..._ _ C | a.1.g.1.1.%.j N.:X,X,XM w g.' j ! ! f XXZXvXzXaXwXwXyXzXhXeXeXn.} LXcXhXqX9XwXlXzXlXrX9X_ X.2.F C <...D ",
"1.] *.j...L.h.h.h.1...*.] A _ f.=.d ^ ;X>X:Xm 1.*.#.h ! W d.XXaXaXlXzXaXwX9XiXzXzXhXeXeXn.} U.dXqX9X9XdXzXzXtXwXF { O.h.h.$.A w ",
"*.X.&.8.X.F.4.2.<._ #.=.+.] #.] n o N.:X>Xm A X.) A > ^ N d.eXeXaXzXzXaXwXrXAXIXIXLXdXsX7Xf S.P.y.u.wXPXIXIXuXwXS _ | ..| C 9 9 ",
"] n | +.F.G.5.X.w 6 ) ] ` ` L e .   $ [.H.= i ` y y o o - d.iXdXdXAXIXPXJX|.8 D J D 9 0 r 4.N k.y.OXhX@.D D OXqX) v w A u u 3 8 ",
"n Z 4.C.G.4X].X.{ A ) ' #.%.) + j     > ; w A D ` *     O I.v.e 9 A J J D 4             . y.f L.g.w 9       8 7XS n ` ) D D D #.",
"j...,.C.H.>X<X$.j.+.0.9.*.*.=.. I g :.o i @.*.i.j.8 , g < U.a.                - $ f 4.2.s X   * 1   - - - - - OX;._ &.i.a.c.c..X",
"*.=.9.>.K V [.I.1.i.g.*X*X.X2 g 6.0.{.A.e I.XX.XA < g I ~ ~ L.E.@.; O - , , - d > s * * X     - - - d 9.9.t.b.U.N c..X.X|.z.x._.",
"=X'.q.X.'.S.h 8.9._.=X@X-X|.  g E W Q.S.g 6 D *.6 < I I U j N } L L @.4.*.L L 1.a q s 3.O.s s 4.4.L s Y N < ' N o...' *.c..XsX#X",
";.:.7.q.R.( ( P n O.+..X.X_.  O O O > < =   $XfXi o = O O O o # * q c N M q n M q d e N N 6 e T N q q x..X+X.X$XNXCXMXmX$X_.j.*.",
"#.P P q.q.R.R.R.@XOXgXgXgX@X_..X.X.X X`..X.XmXCX&X.X.X`.c.g.*.=.c._.*XgXxX@X@X$X.X'.oX@XoX.XoX.XoX.X_.gXnXmXmXmXcXMXNXNXNXMXMXgX",
"x.q.0.0.R.'.-X-X@X&X&X&X#X&X#X#X&X&X&X-X@X&X*X@X&XgXgX*XgXMXMXnX*X.X.X X.X_..X.X`.$X.X$X$X@X*X*X&X&X&X&X&X&X&X-X@X&X*X@X@XgXgXgX",
".Xx.j._.*XNXFXFXBXmXnXmXnXnXgXfXmXnXnXnXnXnX&X&X-X-Xx._..X-X#X#X&XnXNXfX`.|.v.j.XXMXSXDXNXmXmXmXfXfXnXnXnXnXxXnXnXfXgX&X&X-X_.x.",
"SXSXNX*X-X.X.X*XNXSXDXSXCXCXSXDXDXSXSXDXSXGXNXNXNXMXfX*X*X&XgXfXMXMXMXNXSXSXCXMX$X.X_.@XBXSXDXFXGXGXGXDXDXDXSXFXDXCXNXCXNXMXmXgX",
"=X'.1...#.L < e R S.=XBX&X[ [ ) [ R ~ 0.~ R Y =.-XT 0.0.( 0.R Y L w 0.@XfXSXDXFXMX$XgXfXCXFXSXBXNXBXNXFXDXDXNXmX=X*XnXSXSXNXBXBX",
"( ~ M +.w y 3 = T Q.0.0.R 6 r r 6 < :.h ~ R 6 = 8.= U 0.Q.( ~ [ w * e +.Q.S.}._.w t 3 2 +.0.0.8.8.[ |.&XCX'.0.S.0.Y i n x.R I ~ ",
"( ( Q.( Y e 3 8 q +.0.( 0.~ e p p 8 _ T ( R.( e e = 3 Y ( ( ( Q.Y 8 p n 0.Q.A.U T ) 8 3 Y A.( U R [ e L I., Y h +.E j 2 r ) 3 R ",
"w U A.E g U 6 u q r T U E g g 6 p 3 y m E ~ U T [ 6 r i < ~ ( / Y , r r e :.Q.E E R 3 r r Y Q.( / A.Y ) L r _ e ( ( 0.Y = i 3 i "
};
