/* XPM */
static char *_c65326ecfaa4412b5615837d2b052a5d1GpGrf5m5fQ4QGr[] = {
/* columns rows colors chars-per-pixel */
"64 64 254 2 ",
"   c #010101",
".  c #0B0B06",
"X  c #0C0C09",
"o  c #0A0603",
"O  c #130D06",
"+  c #0F100A",
"@  c #14140B",
"#  c #1B1B0E",
"$  c #181409",
"%  c #1C1C12",
"&  c #181713",
"*  c #21160C",
"=  c #261B0B",
"-  c #321E0B",
";  c #231C13",
":  c #1F2011",
">  c #1F200E",
",  c #28240C",
"<  c #36240A",
"1  c #232413",
"2  c #2C2B15",
"3  c #2B241D",
"4  c #2D2D1B",
"5  c #262719",
"6  c #3C2C15",
"7  c #332C1B",
"8  c #3A2D1A",
"9  c #352613",
"0  c #2E311C",
"q  c #34331C",
"w  c #3B311E",
"e  c #3A3A1E",
"r  c #35371B",
"t  c #3F3507",
"y  c #2D2622",
"u  c #2E2923",
"i  c #272726",
"p  c #322C24",
"a  c #342E29",
"s  c #302721",
"d  c #2D3421",
"f  c #353224",
"g  c #3B3423",
"h  c #353C26",
"j  c #3C3B24",
"k  c #36342B",
"l  c #39352C",
"z  c #3A3A2D",
"x  c #363D28",
"c  c #3B3B32",
"v  c #3A3935",
"b  c #452A0C",
"n  c #45380A",
"m  c #412D15",
"M  c #462C13",
"N  c #433117",
"B  c #4C3316",
"V  c #43321A",
"C  c #4A3719",
"Z  c #543C1C",
"A  c #5A3E1B",
"S  c #553716",
"D  c #59330F",
"F  c #623F1A",
"G  c #643B13",
"H  c #433926",
"J  c #4A3A23",
"K  c #433C2A",
"L  c #473A27",
"P  c #533E26",
"I  c #413F36",
"U  c #394129",
"Y  c #3A4125",
"T  c #3F4034",
"R  c #5B411E",
"E  c #5C461B",
"W  c #4E470F",
"Q  c #63441C",
"!  c #6A4519",
"~  c #734415",
"^  c #774A19",
"/  c #7B521D",
"(  c #6A570F",
")  c #434325",
"_  c #44442B",
"`  c #4B4B2D",
"'  c #49452B",
"]  c #53432B",
"[  c #5A4426",
"{  c #4C4532",
"}  c #4D4A33",
"|  c #41433A",
" . c #454734",
".. c #514B35",
"X. c #544E39",
"o. c #5B4936",
"O. c #4D5636",
"+. c #535335",
"@. c #54543A",
"#. c #5B543D",
"$. c #5C5A3D",
"%. c #545938",
"&. c #54532D",
"*. c #654A22",
"=. c #6B4D22",
"-. c #644824",
";. c #764B21",
":. c #7A4D24",
">. c #6C5329",
",. c #795626",
"<. c #665439",
"1. c #775B39",
"2. c #58633E",
"3. c #6A633E",
"4. c #7E6C13",
"5. c #474944",
"6. c #5B5843",
"7. c #51554C",
"8. c #625B42",
"9. c #685D46",
"0. c #755D44",
"q. c #6B5F53",
"w. c #5D6842",
"e. c #59625B",
"r. c #666244",
"t. c #6A6345",
"y. c #6D6449",
"u. c #686848",
"i. c #746B4D",
"p. c #776747",
"a. c #6A774B",
"s. c #776C55",
"d. c #7C7353",
"f. c #787558",
"g. c #6F6E54",
"h. c #7A7A62",
"j. c #716F6D",
"k. c #5F6160",
"l. c #854D19",
"z. c #86561C",
"x. c #95541F",
"c. c #8D7016",
"v. c #A17C11",
"b. c #8C5D2A",
"n. c #845A27",
"m. c #965621",
"M. c #804F26",
"N. c #A35A21",
"B. c #8A652C",
"V. c #96682B",
"C. c #946D31",
"Z. c #9B6E31",
"A. c #996939",
"S. c #9C7132",
"D. c #98733B",
"F. c #8C6832",
"G. c #BA6926",
"H. c #A37433",
"J. c #AC7B35",
"K. c #A77A36",
"L. c #B27E38",
"P. c #A8692F",
"I. c #C56C25",
"U. c #D1752A",
"Y. c #876948",
"T. c #8A754A",
"R. c #94754B",
"E. c #857A5B",
"W. c #857759",
"Q. c #9C7C53",
"!. c #967A56",
"~. c #886E50",
"^. c #A37C53",
"/. c #887B61",
"(. c #768654",
"). c #AE8E14",
"_. c #B58237",
"`. c #B68339",
"'. c #BA853A",
"]. c #BE893B",
"[. c #AF803A",
"{. c #A39B1A",
"}. c #C09314",
"|. c #D3B11B",
" X c #E4AC17",
".X c #FFBA17",
"XX c #FCBB1A",
"oX c #EFB319",
"OX c #C28C3D",
"+X c #CD943F",
"@X c #FEC31B",
"#X c #F5C91D",
"$X c #DCD123",
"%X c #E8D622",
"&X c #FFD821",
"*X c #FFEB26",
"=X c #FFF228",
"-X c #8D825C",
";X c #98875C",
":X c #A78459",
">X c #B38C53",
",X c #8C8265",
"<X c #95896C",
"1X c #9B8C6B",
"2X c #958766",
"3X c #968A74",
"4X c #9E936E",
"5X c #B78D62",
"6X c #A2926B",
"7X c #A99465",
"8X c #B99264",
"9X c #A59673",
"0X c #AB9B75",
"qX c #AC9D7B",
"wX c #A69877",
"eX c #AA8A63",
"rX c #AEA07C",
"tX c #B2A27D",
"yX c #BEAC7E",
"uX c #B9A46C",
"iX c #CB9341",
"pX c #D49A44",
"aX c #CE8C41",
"sX c #DDA146",
"dX c #E4A548",
"fX c #E7AB57",
"gX c #C69A6B",
"hX c #C69A6A",
"jX c #CA9D71",
"kX c #CCA473",
"lX c #D8B879",
"zX c #D3AB6E",
"xX c #E89F56",
"cX c #D7C17E",
"vX c #E5C27D",
"bX c #AC9F81",
"nX c #AEA386",
"mX c #B4A583",
"MX c #BCAC8B",
"NX c #B6A888",
"BX c #BEB08D",
"VX c #BAAF93",
"CX c #9A9896",
"ZX c #C9B689",
"AX c #C3B493",
"SX c #C9BA9A",
"DX c #CEB58B",
"FX c #C9BEA2",
"GX c #E6C684",
"HX c #F2D88F",
"JX c #D3C8B0",
"KX c #E4CE98",
"LX c #FAF7F5",
"PX c #EFE2D4",
/* pixels */
"T 7.7.e.7.5. .5.v v v a a v k a a k a a a v a a k v v v I 5.7.5.T v v v v a a a u i p y y y y y y s X.s.d.r.-X,X,X-X-Xd.E.d.d.-X",
"v v T T | I v T a k a a a a a y u u y u a u a a a a v v l I T 5.T v v a a k s a y 3 3 3 5 u 3 y 3 y X.s.s.t.E.-X-X-XE.d.E.d.E.d.",
"T T 5.5.5.v v I v v l a l v a u f u s p a a a a y s u u a a k a a u a u u y y y y 3 3 3 3 y 3 3 3 s { s.d.t.E.E.E.W.d.s.d.d.d.d.",
"v v T T c c | I v k a a a k a u p s s p a a a u s k k k l <.9.p.s.s.a a a a y a a u u s 3 y y y y p ..g.i.t.E.d.f.W.d.d.i.d.i.t.",
"v k z z l k l l a p u a a p p s s u p 3 s s s p k z z I I hXDXDXhX0.~.l k f a a f k a p a p 3 y s p X.g.y.r.d.i.d.d.d.p.t.t.r.8.",
"z z z T c z l f f k a f s s s s u s p 3 3 s a a s.b l.A.^.dXeXeX^.^.Y.Y.l a f a p p s s u u ; 3 s a ..i.y.9.d.i.i.i.i.y.r.$.<.#.",
"z c T T  .U c l f v k p p s s p s u y y 3 s S b b D G.xXxXU.G V =.xXaXN.[ a f u s p s y y i i 3 a k ..y.i.<.i.i.u.i.y.y.8.X.@.#.",
"a a x z z k k p f k l p f s s p a p s a a -.l.M.N.U.fX>XG.U.D b A I.l.~ G.-.a a p s s a v i i k k k } y.u.$.i.s.i.p.y.y.8.@.#.9.",
"f p f 3 u a f u f k a f f u i p p u u k :.l.x.G.U.U.G.I.G.G R.F.b D b G m.M k a p s p | X { -Xi k k { r.9.$.W.d.i.d.d.i.u.9.8.s.",
"u p p u u f k u s k u u a u s p f u p ] ~ m.m.G.I.I.N.I.I.< 5X^.[ M b G ;.<.p p 7 s a | X #.7X8 p p  .X.4 v 8.y.i.d.d.i.9.$.+.#.",
"k v v u a k z a k c f v v a k l k k l P G x.x.x.x.m.I.U.I.- 5XlXkXB G l.B f k l a a k   : z a.^ - z } uX4Xa.{ X.#.#.6.<.#.o.] #.",
"z l z z k v k v l c k z l l k l l z l P ^ N.I.I.I.I.U.l.D O 3 8 H b l.G N k v l k a v | d O.a.; v z  .d.(.(.w.5.<.r.y.y.8.#.#.9.",
"k k z z z v k k k v x v v v k k l I k M ~ x.G.l.l.l.l.M.1.      & Y.,.1.CXp z v v v l z h %.a.: l l  .f O.w.w.u.r.t.y.i.r.8.#.#.",
"z l c c z z k k v z k v l z z z H I l - ~ m.l.b - b - Y.5X      7 cX1.g.CXk c z z z z z h 2.a.U l c {   4 U U 8.8.9.9.9.9.8.X.K ",
"T T T | T c z l k T k z z z z '.V.M.l.b b < N lXeXB >XGXlX    P jXjXPXCXV l c z l z z z h 2.a.U @ %.GX7       8.8.8.<.8.8.6.X.K ",
"c  .| | T c l p x T f v B.>X8Xn.M * * o - b b 5XeXb.5XGXHXuX^.!.Y.J l u k k z c z l c l h U  .U *.B.>XB.S.D.M #.8.6.6.8.X...{ g ",
"x k z z z l l f l I f z Z.J.Z.A S t t t < < < F.R.~.8XzXlXDXjX5Xp.@ 3 k K f l z z z j Y u f 4 q >.S.>XV.J.`.B X.8.8.#.X...I X.H ",
"7 f q f p w 8 f 8 f 8 p V.b.G O {.$X%X#X4.# < $ p Y.5X^.Y.R.jXmXeX; p f f g a q 8 r $ $ @ @ @ o 6 T.cX,.E B #.@.6.8.6.o.X.o.X...",
"@.X.X.X.@.X.X.X.X...X.X.-.M <  X( > > $X#X}.B <.P 3 :X^.R.vXPXLXJXi X...X.X.X.X.X.E.7X-XT.-Xp.$ E B.=.B.=.C #.6.8.8.8.6.$.6.6.#.",
"#.#.#.$.#.$.#.#.8.#.#.#.P ; @ c.E H C 4.|.|.b 1.o.; ^.0.J p./.3Xj.p B o.$.#.$.#.$.t.;Xu.t.3.+.@ ,._.S.,.D.:Xd.w.9.8.#.#.#.8.<...",
"..{ { ..} X...' ..X...{ { i & 5.~.^.R.7 c.{.( >.L * ^.P         O B n.,.e , 9.X.+.O.w.U U x h O F.+X].*.;XzXGXO.k.8.X.X.#.8.8.' ",
"X.......X.X.{ K X.X.X...{ j.i o KXlX8XY.e W $XE = * ^.]         O S n.`.OXC.-.a <.%.w.U U U f X =.B.*.E *.>.;XZX2X8.8.6.8.9.6.K ",
"8.6.8.8.8.6.X...#.8.o.6.9.W.5XHXHXKXhXY.q , %X|.4.X 0.Q.Y.        $ C b.[.+X>XD.u.O.w.U U U h + B.].B.Q S.OXpXfXD.r.t.y.9.8.X.H ",
"i.y.i.y.t.y.9.X.6.9.9.s.s.eXDXGXGXDXhXT.7 < %X#X).O L ^.5Xf e.k.k.k.L [ S.OX'.F.f O.%.U U d % + ,.[.,.Q F.'.dXdXC.i.i.i.9.X...H ",
"i.d.d.u.r.r.$.' ..{ 6.9.eXGXHXgXhXhXhXY.7 < oX*X{.    Y.hXY.PXLXLXLXk.m V.S.! @ (.O.Y U U :   . Q ,.Z A Z =.dXdXC.y.r.<.$.` ' j ",
"..u.r.&.&.` 0 5 4 & o.hXgXjXgXgXhX:XY.Y.9 < oX.Xv.@ W.j * hXY.P   o   * Z B.*.@ (.O.U U . C [.dXdXiXS.Q B.K.dX3 $.} ) ) ) e 5 % ",
"e r.r.` _ _ q 1 1 @ ] hXgXgXgXhXeXY.L L $ , oX.Xv.& d.p.#.<.^.T.<.<.0.<.8 =.=.R U %.O.U : q >.fX>XV.,.E Z R ,.) ' 5 q &.$.` 1 . ",
"0 $.2.` ` } 0 # # % 1.kXgXhXhXeXY.H   < t ( oX.X).W 3.-X-X3 R.Q.Q.Q.7Xp.+ < E =.  O.2.U U : 4 lX:X=.*.C 4 # 1 1 # + 1 ) r.&.q @ ",
"# r j ) ) g 5 > 1 ;XHXHXzXhXhXY.9   o  X@XXX.X.XXX X< 2.;X7X$                     O.w.U U : = pX_.S.C.* 2 > 2 2 1 $ # _ u.$.) + ",
"# 1 0 ) e 1 : # 2 ;XHXHXkXeXY.; c.}.).XXXXXX.XXXXX X< d.yXyX7X6X2Xd.p n ).}.4.    O.w.Y U h 0 6 < W C.A 1 @ % 0 : 5 4  .u.6.` # ",
"; : 2 ) j 1 + @ 2 ;XHXlXjX^.p.  n ).&XXXXX.X.X.X.X X< d.ZXZXZXZXZXuX3Xf.c. Xv.o U w.w.h U U h % O # C < & X X d # # 4 _ w.f.%.1 ",
"> 1 q Y j 2 $ @ 2 ;XlXhXjX:XY.O @ ( $X@X@XXX@X@XXX Xn T.tXZXZXZXSXZXJXCX* ).c.% a.(.2.U U U x h @ X @ X @ @ . 5 @ + % x X.} f j ",
"$ 2 q Y Y 5 # > 5 + 9.gXGXkX5X0.0.[ , %X*X*X*X*X&XXX X( r DXDXJXPXSXr.&   $ ) 3.U ` U U U Y U U X + X X + # . : : + @ d U % % ) ",
"+ 0 q j e 1 # 1 ; O o.gXlXGXlX^.<.5   $X=X=X&X&X@X.X.X( + t.t.s.j.p.5 < ( $ 0 (.U U U U %.O.U U + d . X X # . & 5 # @ 5 q , 2 q ",
"+ 2 q e r 5 $ # # @ W.^.gXjXuX!.o.% + {.%X*X.X.X X}.}.n o 9 9 9 6 9 O n ).W W w. .U x Y w.2.Y d : 5.. . + : . @ 0 % X & 5 q r @ ",
"@ 2 7 e 0 # # 1 1 @ p 7.8X0.& X O.u.U o {.*X@X@Xv.      $ _._._.'.'.B   . $X{.+ (.O.U Y U U 0 . i : . . + > X + d : @ f @.) j 1 ",
"; @ 2 Y q # # @ 2 @ e j q.k 5 w.O.U U . - n t < E V.B.V.Z._.+X'.n.b.H.8XVX&., @ (.O.U U U U 0 . : U d T + & # : Y j e w.g.` 2 $ ",
"1 @ 2 Y q @ @ @ 2 @ q e ) 7.& w.U : : . * M 6 6 Q V.L._.'.+X+XJ.;.;.V.5XAX1.6 @ (.O.U U U U d X @ i U 5 e.+ : 5 j q 4 6.g.) # X ",
"1 : 1 H r 1 , # 2 1 2 e _ _ ` _ &       S ;.;.;.;.:.K._.'.dX'.A.;.;.;.b._._.,.@ (.%.U U U U f X # @ U U # @ : @ & @ @ } g.) > + ",
"} q } u.6.x 2 1 1 2 2 j e j ) Y   [ jXjXP O ;.;.H.dX]._.'._.pXpX'.L.b.H.pX].,.                + @ # :   : U : @ @ @ @ _ u.h 2 0 ",
"f.e u.f.h.h.7.: 1 2 2 j r q j e [ Q.gXgXP * A.Z.J.+X+XOXL._.H.K.L.'.b.V.aX`.B.M   B -.-.! R , @ 1 2 2 2 5.> 1 2 4 q 4 } 6.x 1 u ",
"g.e _ } 7.g.q. .5 4 2 g ' Y H x Y.gXgX5XL = _.'._.'.OXOX_.H.:.b.'.'.Z.P.].`.Z.!   *.Z.H.S.n.B 1 r r 2 r 2 @ q Y @._ f _ $.j 5 5 ",
"Y 1 @ X + 1 } g._ 4 7 j j ' ' ) Y.hXhXY.p , pXOX'.J.b.H.L.^ M.V.'._.pXdXdX'.Z.:.  *.H.Z.S.,.C g e 2 2 2 > % C %.g.T % d O. .` ` ",
"@ $ # X + : 0 T r.2 q j r p.Y.` Y.hXhXY.7 - pX'.L.L.J.OX+X;.aXiX+X'.'.iXpXC.S.K.  B.OXZ.S.,.B _ q 2 2 2 > 1 e %.h.@.f } 6.$.` ' ",
". @ # @ 0 h 1 q g.2 q Y e L :X<.^.8X:XP -.F.pXOX'._._.pXpX9 >.,.n.V.V.L.pXP.K.aXQ >.C.].S.B.=.6 ) 4 1 1 > 1 e &.` 2.3.&.r e ) ` ",
"c + 1 2 _ } 5 0 $.7 e j j L p.8X5XQ.0.3 D.dXpXL.L.L._.OX>Xi % i s F ;.Z.iX_.`.'.J.B R dXK.S.B.R # j x 2 2 5 e r %.` e 2 r ` <.a.",
"$.@ 1 2 ` r.} 5 %.2 ) _ ) e g 4 * & + '.sX+Xb.M.V.'.'.R 8 7 5 @ X y S M.n.M.P.pXM.9 Z dXH.S.V.A = 5 5 7 q j q 1 _ e 2 r ' %.a.d.",
"u. .) q j _ ) Y +.2 ) +.` ) ) z R Z.L.OXpXpXJ.H.,.9 < 6._ @.` _ _ q 5 0 * * B b.;.< [ dXK.S.B.A = > @ 4 } r.7 # q q 2 r e ) %.3.",
"$.+._ ) ' x ) %.` 2 ) ` ) x ` j Q J.dX].iXpX_.C.1.r _ @.) +.%.h.f.` 2 0 7 X - ^ ;.- E dXH.S.C.! 9 @ @ z u.O.1 @ 1 q 2 % % 4 j ' ",
"' e e ` +.+...} } j H O._ 0 _ F - P dX]._.'._.= 2 e +.' ) ) %.f.f.` 7 2 r & - M.;., R dXK.S.S.Z.^ 6 @ f O.j f # $ 2 4 @ @ 1 r 2 ",
"r 2 q e ` +._ 2 _ g ) @.` r _ F F F S J.b.F % 1 2 r ' ) ) ' +.r.w.j 2 2 r 5 : O ;.- E dXH.S.S.C.=.6 # 5 f 6.) 1 # # 1 % & 1 2 > ",
"` ` l ) } } _ ' } _ @.r.<.Q [ < 9 < - b.Q P j H H ' +.&.&.r.t.p.r.#.{ ' .._ l H M $ C ].S.S.S.Z.,.6 g K 6.<X} g j q p K _ K K x ",
"6X1X2X2X2X1X3X1X,X2X= 6 H._.K.$ O O   S ..!.-X-X-X2X1X6X1X6X2X6X9X4X<X,X1X4X3X/.s./.m Z.S.S.S.Z.,.B 7 -X1X9X1X<X2X!.2X<X<X/./.1X",
"0X0X0XmXMXAXNX3XE.6 n._._._.J.G F b   6X1X6X6X1X6X6X0XwX0XqXmXAXAXNX3XW.E.wXbXqXwXwXm Z.S.S.S.S.S.b.A O 9X0X0X0XbXmXAXAXnX3XW./.",
"MX/.W./.E.W./.3XF.S.B.:.;.;.;.R F m AXmXrXtXqXmXmXnXnXnX/.f./.E.f./.1XqXMXmXqX9X0X6X9X- = Q S.S.S.B.A O < V bX/.h././.f./.9XrXNX",
"<X<XwXbXNXmXmXNXF.V.,.S B B B D B BXAXSXSXFXJXFXMXNXVX3X<XwXmXNXmXmXNXmXmXrXqX0X0XqXtXmXAX, ,.,.,.Q m o o m 3X<XwXmXmXmXmXNXmXmX",
"0X1X<X9XrXtXMXMXNXmXtX9X7XrXNXMXAXAXAXSX3X,XwXqX0XmXMXwX2X1X9XrXmXNXNXNXNX0X6X9XtXMXAXAXAXSXVX<X,XbXqXwXmXNX9X1X1X0XtXtXMXZXMXmX",
"qX4X6X0XmXMXAXAXAXAXMXMXBXSXFXAXVXmXmXNXnXNXAXAXMXBXmXwX6X6XrXNXAXAXAXAXAXAXZXAXSXFXBXNXnXnXNXnXVXAXBXMXZXrX9X6X6XrXNXAXAXAXAXMX",
"y.y.i.R.Q.Q.!./.d.W.Q.:X;X<X,Xf.W.T.Y.Y././.<X2X:X;XY.u.t.Y.R.Q.Q.W./.W.W.!.^.!.1X,Xf.T.T.Y.T./.,X,X;X:XQ.p.y.y.Y.R.^.!./.W.~.W.",
"g H *.z.z.! P l J =.l./ ! [ ) [ / z./ P l H [ ^ l.^ P g J *.n.z.! J H J ,.l./ -.] ] [ / z./ Z g L -./ l.;.J l C =.n./ Q L H P / ",
"L [ n.V.n.-._ P *.m.z.;.P L ] ^ V.V.^ P ' [ n.z./ *.K K *.z.V.,.[ _ ] ! m.z.! ] { -.,.V.V.*.K L [ n.z./ [ K P *.z.V.,.] L P ;.m.",
"P ~ ~ ! C r H Q ^ ~ A V f L Z ! ! A r g Z ~ ~ Q Z f g A ~ ~ ! C g C Q ^ ! E V r ) ! ~ ! Z g g R ^ ~ Q C g V [ ~ ~ Q V w J ! ^ ! ",
"! ~ ~ B 7 8 S ^ / ~ 8 7 7 C Q ! E 7 7 V ~ l.^ B 7 7 V G ^ ! w 8 w A ^ l.Q 8 7 8 Z ~ ~ Z 7 7 C ^ l.! B 8 q N G ^ Q N 7 C ! ^ l.S ",
"m N 6 7 4 6 N w t 6 9 7 7 6 6 < 7 7 7 6 V 6 6 7 7 7 8 m N 6 7 2 6 m N M 7 7 7 7 6 6 w 6 7 7 6 N N 8 7 4 6 6 N N 8 2 2 6 m C N 2 "
};
