/* XPM */
static char *a54fd31f20fb4216ccf9d810e176029fQu0N1FqGPJpS8R1k[] = {
/* columns rows colors chars-per-pixel */
"64 64 46 1 ",
"  c #4B4B4B",
". c #4C4C4C",
"X c gray30",
"o c #4E4E4E",
"O c gray31",
"+ c #505050",
"@ c #515151",
"# c gray32",
"$ c #535353",
"% c gray33",
"& c #555555",
"* c #565656",
"= c gray34",
"- c #585858",
"; c gray35",
": c #5A5A5A",
"> c #5B5B5B",
", c gray36",
"< c #5D5D5D",
"1 c gray37",
"2 c #5F5F5F",
"3 c #606060",
"4 c gray38",
"5 c #626262",
"6 c gray39",
"7 c #646464",
"8 c #656565",
"9 c gray40",
"0 c #676767",
"q c #686868",
"w c DimGray",
"e c #6A6A6A",
"r c gray42",
"t c #6C6C6C",
"y c #6D6D6D",
"u c gray43",
"i c #6F6F6F",
"p c gray44",
"a c #717171",
"s c #727272",
"d c gray45",
"f c #747474",
"g c gray46",
"h c #767676",
"j c #777777",
"k c gray47",
/* pixels */
"oo+oo++o+ooo+o+oooo oooo+o+oooooo+oo+oooo+oo+ooooo+ooo+o+oo oo+o",
"0ywwwwww0;0ywwwwwww=yywwwwwww=gwwwwwww0=dwwwwwwww+gw0wwwww0=dwww",
"0ywwww0ww;wywwwwww0=dwwwwwwww+gwwwwwww0=dwwwwwwww+gwwwwwww0+dwww",
"0gddddddg<wgdddgddd;ydgddddgg=gdddddddd=gdddgdddd=gdgdddgdy=gddg",
"+;==;==;=++===;;===o========;o=========o====;=;==o==;======o;===",
"0000=000000006=000000600+w00606000od06000006+y00060006=y00000006",
"0www;wywwwwwww;ywwww0www=d0wwwwwww+gww0wwww0+gwwwwwwww;d0wwwwww0",
"yyyy;wdyyyyydy;ydyyyyyyy;yyyyyydyy+gdyyyyyyy=kyyyyyyyw=gyyyyyyyy",
"0w60;<60000060=<00000600+600006000o606000066+060600006+000060066",
";<;<<<;<<+<<;<;<;<;o<<<;<;;<;o6<;<<;<;;+<<;<<;;<;o6;;<<;<;<+6;<;",
"0ywwwwwww;wywwwwwww+yywwwwww0=gwwwwwww0=gwwwwwww0+gwwwwwww0+gwww",
"wywwwwwww;wywwwwwww=dwwwwwwww+gwwwwwww0=dwwwwwww0=gwwww0ww0=gwww",
"6dddgdddd<6dgdddddd;wgddggddd=ydddddddd=ddddddddd+dddddddgy=dddd",
"+=++++=++=+==+++=++==++=o+=+=+=+=+o==+=+++=+ ==++==+=+o=++=++==+",
"wwww<wywwwwwww;yywwwwwww=d0wwwww0w+g00wwwwy0+gwwwwwww0=dwwwwww00",
"wwww;wywwwwwww;ywwwwwwww+ywwwwwwww+gwwwwwwww=dwwww0ww0;gww0wwww0",
"gggg6wggdgdggg<ykggggdgg;ygggggggg=gggdggggg=kgggggggd=kggdggggd",
"+==+oo+==++==+o++==++==+++=+=+=+=+o++=++++=+o+=++++==+o++==++=++",
"0w000000w;0w0000000+yw00w0w00=d00000w00=d0000000w+d0000w000=d0ww",
"0ywwwwwww;0ywwwwwww=ywwww0www+gwwwwwww0=dwwww00ww+gwwwwww00+dwww",
"wdydddydy<wdyddyydy;ddydydyyd=gyydydydy;gdyddyddy=gdyddyydd+gydd",
"=<<<<<<<6+;<6<<<<<6+;<6<6<<6<+<66<<<6<<+<<6<<6<<<o<<<<<<<<<o<6<<",
"<6<6=60<<66<<6=666<66<<6+0<66<6<<6ow6<6<6<<6+w6<<6<66<=06<<66<6<",
"wwww=wywww0www;yw0w0www0=ywwwwwwww+gwwwwwww0+gwwwwwww0=dwwwwwwww",
"yyyy<wdyyyyyyy;yyyyyyyyy=yyyyyyyyy=gyyyyyyyy=dyyyyyyyw=gyyyyyyyw",
"wyyy;6wyywyyyy<0yywyywyy=0ywwyyyyy+wwywyywyw+wyywyywyw=yyyywywyy",
";<;;;;;;<+;;;;;;;;;+<<;;;;;;<+6;;;<;;;;+6;;;;;<;;o6;;;;;;;;o<<;;",
"0ywwwywww;wywwwwwww=yywwwwwww+dwwwwwwww=gwwwwwww0=gwwwwwww0=gwww",
"0ywwwwwww;0yww0wwww=yywwwwwww+gwwww0ww0=gwwwwwww0+gwwwwwwww+gwww",
"6dydddydd<0dddddddd;wddyddydd;dddyddddy=yddyddydy=dddddyddy=ddyd",
"+++=o++=+++++++++++++++=o++=++++++o=+=++=+++o+=++o+++++++++o=+++",
"w0ww;wywwwwwww;yywwwwwww=ywwwwwwwwogwwwwwww0=gwwwwwwww;dwwwwwwww",
"wwww;wywwwwwww;ywwwww0ww+dww0wwwww+gwwwwwww0+gwwwwwww0=dwwwwwww0",
"dgdd<wgddgggdg<yggdggggg;ygdggdggg+ggggggggd=kdddggddd;gdgggdddd",
";;;;==;;;;;;;;+;;<;;;;;;+;;;;;<;;;o;;;;;;;;;o;;;;;;;;;+;;;;;;;;;",
"0w0606000;600060006=w00000000+y00006006=y00006000+y06000006+y600",
"0ywwwwwyw;wywwww0w0=yyww0wwww=dwwwww0ww=d0wwwwww0+gwwwwwww0=gwww",
"0yyyyyyyy<0dyyydyyy=ydyyyyyyy=gyyyyyyyy=dyyyyyyyy=gyyyyyyyw+gdyy",
";60666666==66666666+<66666066+<66666666+666666666+666666666o6666",
"<;<;+<<<;;<;;<+<<;<<<;<;o<<;<<<<<;o6;<<;<;<;o6<<;;<;<;+6;<<;<;<;",
"wwww;wywwwwwww;ywwwwwwww=ywwwwwwww+gwwwwwwww=gwwwwwww0=dwwwwwww0",
"wyyw<wyyyyywyy;yyyyyywyy=ywywyywyy+gwyyyywyw+gywywyyyw=dyywyyyyw",
"ywww;<ywwwywww;6yywwwwwy=6wwywwyww+wwwwwwyyw+ywwwyywww+yywwwwyww",
"=========+=======+=o=========o;========o;+==+====o;=+======o;+==",
"wywwwwwww<wywwwwwww+ywwwwwwww=gwwwwwwww=gwwwwwww0=dwwwwwww0=gwww",
"0ywwwwwww;0ywwwwwww=dwwwwwwww+gwwwwwww0=dwwwwww00+dwwwwwww0+gwww",
"0ddggggdg<wggddgggd=ygggdgddd;ggddddggd=dddgggddd+gdddgddgy=gggd",
"+===++===++=+=+====+=+==o====++===+==+=+===++;===o====+;=+=o=+==",
"wwww;wywwwwwww;yywwwww0w=ywwwwwwww+gwwwwwww0+gwwwwwww0=dwwwwwww0",
"wwww;yywwww0ww;ywwwwwwww+dwww0wwww+gwwwwwww0=gw0wwwwww=dwwwwwww0",
"dddd<wdddddddd<ydddddddd=yddddddgd+gdddddddd+kdddddddy;gdddddddy",
"=;==++;=;=====o====;====o===;====;o===;=====o=;=======o======;==",
"660666066=606666066+006066666+y66666066+w66606666oy66666666+w666",
"0ywww0ww0;0ywwwwwww=yw0w0wwww=gwwwwwww0=dwwwwwwww+gwwwwwww0=gwww",
"0dyyyyyyy;0dyyyyyyy=dyyyydyyy;gyyyyyyyy;ddyyyyyyy=gyyyydyyy+kyyy",
";wwwwwwww;6wwwwwww0=6wwwwwwww+wwwwwwwww+0wwwwwwww+0wwwwwwww+wwww",
";<<;+<<;<<<;<<+6<<;<<<<<o6<<<<<;<<o6<;<<<;<;+6<<<;<<<;+6<;<;<<<;",
"wwww;yywwwwwww;yywwwwwww=yww0wwwww+gwwwww0ww+gwwwwwww0;dwwwwwwww",
"wyww<wy0wwwwww;ywwwwwwww=ywwwwwwww+gwwwwwwww=gwwwwwwww=dwwwwwwww",
"dddd<0ddddgddd<wdddddddd=wdddddgdd=ydddddddd+ddddddddy;ygddddddy",
"+=+++=+==o+=+=+==++o+==++=+==o=+=+=++=+o=+=+=+=++o==+=+==++ =+=+",
"0ywwwwww0;wywww0www=dwwwwwwww+dwwwwwwww=dwwwwwwww+d0wwwwww0=dwww",
"wywwwwwww;0ywwwwwww=ywwwwwwww=gwwwww0w0=dwwwwwwww+gwwwwwww0+gwww",
"wgggggggd6wgggggggg;ykggggggg;ggggggggg=ggggggggd=ggggggggd=kggg"
};
