/* XPM */
static char *a891fa06bc324f61b9a0d03ad80dfbd2DDz807vMorJ6Fmbu[] = {
/* columns rows colors chars-per-pixel */
"64 64 237 2 ",
"   c #000000",
".  c #0C0B05",
"X  c #0B0B0A",
"o  c #0A0602",
"O  c #130C04",
"+  c #110F09",
"@  c #1A0F09",
"#  c #14120C",
"$  c #1A150C",
"%  c #15180F",
"&  c #191406",
"*  c #141313",
"=  c #1B1C13",
"-  c #1D1C1C",
";  c #191811",
":  c #0E100B",
">  c #21160B",
",  c #26190C",
"<  c #2A1D0D",
"1  c #231C05",
"2  c #321D0C",
"3  c #351F07",
"4  c #231C13",
"5  c #2C230B",
"6  c #2F2B06",
"7  c #34220D",
"8  c #3C240A",
"9  c #332706",
"0  c #3F3607",
"q  c #202316",
"w  c #24221D",
"e  c #2A281A",
"r  c #332411",
"t  c #3D2B14",
"y  c #342B1D",
"u  c #372919",
"i  c #31321F",
"p  c #262625",
"a  c #342D22",
"s  c #2E3521",
"d  c #353D26",
"f  c #3A3E29",
"g  c #353526",
"h  c #393936",
"j  c #1D2015",
"k  c #462A0C",
"l  c #45380A",
"z  c #422B13",
"x  c #442912",
"c  c #4C3316",
"v  c #483618",
"b  c #513316",
"n  c #563D1B",
"m  c #5A3D1B",
"M  c #573717",
"N  c #56310E",
"B  c #623F1A",
"V  c #623813",
"C  c #453826",
"Z  c #483B28",
"A  c #523E29",
"S  c #533F27",
"D  c #394129",
"F  c #374128",
"G  c #5B421E",
"H  c #5B461B",
"J  c #4E4710",
"K  c #745E0D",
"L  c #63441C",
"P  c #68491D",
"I  c #754216",
"U  c #77471C",
"Y  c #645410",
"T  c #7E6C13",
"R  c #41482D",
"E  c #54422C",
"W  c #5B4526",
"Q  c #454A33",
"!  c #5B4936",
"~  c #4E5937",
"^  c #4D5536",
"/  c #525B39",
"(  c #575538",
")  c #58552C",
"_  c #654A22",
"`  c #6B4D23",
"'  c #674724",
"]  c #764B21",
"[  c #7B4D23",
"{  c #744C28",
"}  c #6B542A",
"|  c #755224",
" . c #7C5925",
".. c #795729",
"X. c #6A5136",
"o. c #685339",
"O. c #775B39",
"+. c #58633E",
"@. c #77643C",
"#. c #474745",
"$. c #585752",
"%. c #685C46",
"&. c #755D44",
"*. c #6B5F53",
"=. c #5F6B43",
"-. c #596541",
";. c #686945",
":. c #786545",
">. c #69774B",
",. c #786A58",
"<. c #7E7451",
"1. c #737053",
"2. c #5F6160",
"3. c #646362",
"4. c #7E7C79",
"5. c #716D6A",
"6. c #884C1B",
"7. c #95541F",
"8. c #8F501D",
"9. c #8C7315",
"0. c #A17C11",
"q. c #825D29",
"w. c #8C5D2A",
"e. c #835727",
"r. c #965521",
"t. c #A35B21",
"y. c #8D662C",
"u. c #86632C",
"i. c #936B2E",
"p. c #9B6C2F",
"a. c #94652D",
"s. c #9B702E",
"d. c #896632",
"f. c #946C31",
"g. c #9B6E31",
"h. c #996939",
"j. c #9C7132",
"k. c #97733C",
"l. c #BA6926",
"z. c #A37434",
"x. c #AC7B35",
"c. c #A77A36",
"v. c #B27E38",
"b. c #A8692E",
"n. c #C46C25",
"m. c #C96E27",
"M. c #CB742C",
"N. c #D87628",
"B. c #886847",
"V. c #887349",
"C. c #95744A",
"Z. c #887A55",
"A. c #9D7A53",
"S. c #9A7751",
"D. c #886D51",
"F. c #A27C56",
"G. c #A57C4C",
"H. c #758553",
"J. c #9C9317",
"K. c #A98A14",
"L. c #B88D13",
"P. c #A09819",
"I. c #ABA21D",
"U. c #AF803B",
"Y. c #B58237",
"T. c #B68339",
"R. c #BA853A",
"E. c #BE8A3C",
"W. c #C09314",
"Q. c #D3B11B",
"!. c #E4AB17",
"~. c #ECB31A",
"^. c #FFBA17",
"/. c #FEBC1A",
"(. c #F5B619",
"). c #C28B3D",
"_. c #CB943F",
"`. c #FEC21A",
"'. c #FFCB1F",
"]. c #F5C91D",
"[. c #DFD424",
"{. c #CEC520",
"}. c #E8D622",
"|. c #FFD821",
" X c #FFEB26",
".X c #FEE725",
"XX c #FFF228",
"oX c #978A5C",
"OX c #8F845A",
"+X c #B98643",
"@X c #AA845C",
"#X c #A68457",
"$X c #B58B5B",
"%X c #AF9054",
"&X c #978963",
"*X c #969075",
"=X c #AA8A63",
"-X c #B58C62",
";X c #BA8E61",
":X c #A89466",
">X c #BA9265",
",X c #BAA87C",
"<X c #B8A46B",
"1X c #CC9341",
"2X c #C59243",
"3X c #D39943",
"4X c #D59A44",
"5X c #CD8C41",
"6X c #E79A50",
"7X c #DDA146",
"8X c #E4A446",
"9X c #E3A54A",
"0X c #E7AB58",
"qX c #C69A6B",
"wX c #CA9E6E",
"eX c #C29766",
"rX c #CA9E71",
"tX c #CCA674",
"yX c #DCBB7C",
"uX c #D6B678",
"iX c #D3AB6E",
"pX c #EAAA62",
"aX c #D7C17E",
"sX c #E5C27D",
"dX c #9F9C98",
"fX c #CAB688",
"gX c #D1B88D",
"hX c #D8C289",
"jX c #E6C684",
"kX c #F2D78D",
"lX c #F3D991",
"zX c #D5CBB8",
"xX c #F0DAA7",
"cX c #F4E9DC",
"vX c #FFFFFF",
"bX c #F2ECE6",
"nX c #E6D5C5",
/* pixels */
"                                                                                                                                ",
"                                                                                                                                ",
"                                                                                                                                ",
"                                                          o.%.:.,.,.                                                            ",
"                                                          iXgXgXeX&.,.o                                                         ",
"                                                ,.z [ h.G.6X=X=XG.F.h.D.                                                        ",
"                                            b k k M n.6X0XN.B x ' 0X5Xt.'                 -                                     ",
"                                          ' 6.6.t.M.pX+Xt.N.b k M M.6.B l.'             #.p p h                                 ",
"                                        { 6.r.l.N.M.b.n.l.V S.q.k N k V r.N g         #.X E Z.4                                 ",
"                                      ! B r.r.l.n.m.t.n.n.8 $XG.W x k V U o.          h X ( :Xa       ^ p f                     ",
"                                      E I 7.7.r.8.r.m.N.l.3 eXyXuXb I I c               - f >.] 2   + <X:X>.                    ",
"                                      E I t.n.n.m.m.N.6.N O e y g k I I c             #.s ^ >.4 X   . H.H.H.-.#.                ",
"                          * *         z I 7.t.8.6.6.6.e.O.      4 V...X.*X              d -.>.q X   o g ~ -.-.%                 ",
"                                      8 U 7.7.8 3 k 3 B.$X      i uX:.*.dX              d / >.D $       e D D X                 ",
"                          o   ).w.6.[ k k 8 l uX=Xb @XsXgX    A wXwXnXdXC               d -.>.D % ( jXi                         ",
"                      - d.%X;Xw.c > > O 3 8 z -X$XO.;XjXkX<XA.S.B.C h a                 g D D R } d.+Xu.j.k.c .                 ",
"                      p p.x.g.B c J 0 0 6 < k B.C.D.;XuXuXyXqX-X&.; -                   e s i s } f.#Xi.U.Y.l X                 ",
"                    o p a.w.V O J.[.}.].K 5 8 & a B.;XA.B.D.qXfX=X4   -             ; & # $ + o t k.aX..H b   =                 ",
"                    o p ' c 5 !.Y & 5 [.(.W.k X.E e @XA.C.sXcXvXzX- :           p Z.:XOXZ.Z.:.O H u.` y.` b                     ",
"                      p A 4 & 9.H f v T Q.Q.l O.E > #XO.Z :.Z.4.5.a v (           ;.oX@.;.;.( &  .T.s. .C.#X<.                  ",
"                          p + #.D.F.C.y J.I.Y X.Z > @XE         + b q...t r $.    ~ ;.F F D i + u.1XR.` #XiXhX( 3.              ",
"                          5.p o xXuX>XB.g 0 {.Y < > F.A         O b q.+X).i._ -   ~ =.F F F i + ` y._ H _ } OXhXoXp             ",
"                          Z.-XxXlXgXqXD.y 6 }.Q.K $ &.S.V.        + c q.U._.2Xk.  ^ =.d F F s + u.T.u.L f.2X3X0Xk.              ",
"                        ,.-XgXjXjXuXqXB.a 6 }.'.K.+ Z F.;Xa $.2.2.2.Z _ j.E.+Xd.s / / d F s j + u.U. .L d.R.7X7Xf.              ",
"                      g =XjXkXqXqXqXqXC.u 9 ~..XP.    B.eXB.bXvXvXvX2.t i.s._ # H.^ f D F q   . _  .n m S ' 8X0Xf.              ",
"                    ! qXqXrXeXqXqX@XB.B.e 9 ~.^.0.$ Z.C > qXB.A       1 m y.P # H.~ D D o c U.7X9X_.g.P u.c.8Xe                 ",
"                    E eXqXqXqXeX=XB.C g $ 9 ~.^.0.; <.;.( X.A.C.X.X.:.X.t ` ` G D ~ ^ F q y } 0X+Xf...H M G ..                  ",
"                    &.tXrXqXqX-XB.C   8 0 Y (.^.L.v :.OXOXp C.A.S.S.:X:.+ r G `   ^ =.F F q e yXC._ _ v &                       ",
"                ; &XlXkXiXqXeXB.u     ~.`./.^.^.`.!.6 o.oX:X%                     ^ =.F F q 5 3XE.j.i.$                         ",
"                = oXlXkXrX=XB.q 9.L.W.(././.^././.!.6 <.fX,X&X&X&X<.a l L.L.K     ^ =.F F s i t 7 G i.H X                       ",
"                * oXkXyXrXF.O.  l K.|././.^.^.^.^.!.6 Z.fXfXfXfXfX,X*X,.9.!.K.o D ;.=.f F F d = . > b t                         ",
"                  &XuXqXrX@XB.* $ Y }.]./.`./.`./.!.l <.,XfXfXfXfXfXzXdX$ L.9.j H.>.-.D F d F d %                               ",
"                  o o.eXjXiX-X&.O.! & }. X X X X|./.!.Y a fXgXzXcXgX;.*   & v >.Q R D F D F F d %                               ",
"                    ! eXyXhXuXF.o.e   [.XX X|.|.'.^.^.Y X ;.@.,.4.;.p 9 K & s >.D D D D / ^ F d % p                             ",
"                    ,.=XqXtX<XA.! = : I.}. X/.^.!.W.W.l o r r 7 r r + l K.Y R +.R D f F ;./ F s j #.                            ",
"                      $.>X&.* X ~ =.F o P. X`./.0.      $ R.v.Y.v.T.c   . {.P.& H.~ D F F F s o e e *                           ",
"                        *.g w ;.~ R D o 5 l 0 0 L y.y.i.a.T.3XR.w.e.z.>XdX) 5 # H.~ d f D F s o q F s D X                       ",
"                          $.- -.d j j o , x t k L p.v.Y.R._._.x.] [ f.$XgXd.t * H./ D F F D s o : s D e $.                      ",
"                            * R =       b [ ] ] U [ c.Y.).8XR.f.] U U y.U.Y. .# H./ D D D D g     = F D -                       ",
"                                  E rXwXA O ] ] z.8XE.Y.v.R.7X3XR.v.w.z.4XE. .                X         p d                     ",
"                                W F.qXqXS > a.b.x._._.).v.T.b.z.v.T.w.a.).E.a.z   c _ ' _ n 7 *         #.%                     ",
"                                B.qXqXeXZ , Y.R.Y.R.).).T.z.e.w.R.T.j.b.+XT.p.I   _ p.j.g. .c #                                 ",
"                          * $   B.qXqXD.y r 3XE.T.x.w.z.v.[ e.a.R.Y.4X9X9XR.g.{   ` z.j.g.q.c $                                 ",
"                        h ,.D.  @.qXqXB.a < 3XE.R.v.z.)._.U ).1X_.R.E.1X4Xa.g.v.  u.).s.j. .v #                                 ",
"                        o Z @Xo.@X>X@XA ' d.4XE.Y.Y.Y.3X3Xt } ..q.a.a.v.4Xz.x.2XL | f.E.j.y.` t                                 ",
"                            :.-X-XA.&.e k.8X3XY.Y.Y.R.).+X- - w y B ] h.1XY.v.T.x.v n 8Xc.j.y.n ,                               ",
"                            # $ $ $ + R.8X_.w.e.a.T.R.W a     *   p M 6.e.6.z.3X[ r G 8Xz.j.i.G ,                               ",
"                                G f.x.).4X4Xz.z. .7 7                 > > > c w.[ 7 W 8Xz.j.y.n ,                               ",
"                              $ L x.8XE.1X3XY.f.O.                        X 2 U [ 2 H 8Xz.j.i.` t :                             ",
"                            O B , W 9XE.Y.R.Y.<                             2 [ ] < G 9Xc.j.j.i.U t *                           ",
"                            O B B B M x.y.B 4                                 O [ < G 8Xz.s.j.j.{ t *                           ",
"                        X._ G 2 7 7 7 w.B Z                                     x @ v E.z.j.j.i.{ t *                           ",
"                    < 8 z.Y.c.& @ O   m !                                         = t g.j.p.j.g. .v =                           ",
"                  z  .Y.Y.R.z.L B x                                                 t s.j.j.j.j.z.q.m O                         ",
"              $ y.j.i.| | U U L B x                                                 . 5 5 L s.j.s.q.n O r v                     ",
"                y.f.| b c b b c c $                                                       5 .... .L c o o z     *               ",
"                                                                                                                                ",
"        X                                                                                                                       ",
"          X * * * * - - *                                                                                                       ",
"                                                                                                                                ",
"                                                                                                                                ",
"                                                                                                                                ",
"                                                                                                                                ",
"                                                                                                                                "
};
